<svg width="196" height="236" viewBox="0 0 196 236" fill="none" xmlns="http://www.w3.org/2000/svg">
<g clip-path="url(#clip0_93_1492)">
<path d="M185.443 0.809937H27.0208C21.7675 0.809937 17.5088 5.06861 17.5088 10.322V134.991C17.5088 140.245 21.7675 144.503 27.0208 144.503H185.443C190.697 144.503 194.955 140.245 194.955 134.991V10.322C194.955 5.06861 190.697 0.809937 185.443 0.809937Z" fill="white"/>
<path d="M185.445 144.802H27.0219C24.4208 144.799 21.9269 143.765 20.0876 141.925C18.2483 140.086 17.2138 137.592 17.2109 134.991V10.3225C17.2138 7.72129 18.2483 5.22746 20.0876 3.38815C21.9269 1.54885 24.4208 0.514288 27.0219 0.511475L185.445 0.511475C188.046 0.51436 190.539 1.54894 192.379 3.38823C194.218 5.22752 195.253 7.72131 195.256 10.3225V134.991C195.253 137.592 194.218 140.086 192.379 141.925C190.539 143.764 188.046 144.799 185.445 144.802ZM27.0219 1.10858C24.5791 1.1114 22.2372 2.08305 20.5099 3.81039C18.7826 5.53772 17.8111 7.87968 17.8083 10.3225V134.991C17.8111 137.434 18.7828 139.776 20.51 141.503C22.2373 143.23 24.5792 144.202 27.0219 144.205H185.445C187.887 144.202 190.229 143.23 191.957 141.503C193.684 139.776 194.655 137.434 194.658 134.991V10.3225C194.656 7.87965 193.684 5.53766 191.957 3.81031C190.229 2.08296 187.887 1.11132 185.445 1.10858H27.0219Z" fill="#292A2E"/>
<path opacity="0.2" d="M181.048 26.6417H171.321C169.27 26.6417 167.608 28.3038 167.608 30.3541V40.0814C167.608 42.1317 169.27 43.7938 171.321 43.7938H181.048C183.098 43.7938 184.76 42.1317 184.76 40.0814V30.3541C184.76 28.3038 183.098 26.6417 181.048 26.6417Z" fill="#F1A21D"/>
<path opacity="0.2" d="M181.351 48.3069H171.698C169.627 48.3069 167.948 49.9857 167.948 52.0566V61.7092C167.948 63.7801 169.627 65.4589 171.698 65.4589H181.351C183.422 65.4589 185.1 63.7801 185.1 61.7092V52.0566C185.1 49.9857 183.422 48.3069 181.351 48.3069Z" fill="#F1A21D"/>
<path opacity="0.2" d="M181.351 72.4364H171.698C169.627 72.4364 167.948 74.1152 167.948 76.1861V85.8387C167.948 87.9097 169.627 89.5885 171.698 89.5885H181.351C183.422 89.5885 185.1 87.9097 185.1 85.8387V76.1861C185.1 74.1152 183.422 72.4364 181.351 72.4364Z" fill="#F1A21D"/>
<path opacity="0.2" d="M181.011 95.3315H171.358C169.287 95.3315 167.608 97.0103 167.608 99.0812V108.734C167.608 110.805 169.287 112.484 171.358 112.484H181.011C183.082 112.484 184.76 110.805 184.76 108.734V99.0812C184.76 97.0103 183.082 95.3315 181.011 95.3315Z" fill="#F1A21D"/>
<g opacity="0.15">
<path d="M111.107 26.6416H101.379C99.3291 26.6416 97.667 28.3037 97.667 30.354V40.0813C97.667 42.1316 99.3291 43.7937 101.379 43.7937H111.107C113.157 43.7937 114.819 42.1316 114.819 40.0813V30.354C114.819 28.3037 113.157 26.6416 111.107 26.6416Z" fill="#F1A21D"/>
<path d="M87.7932 26.6416H78.0659C76.0156 26.6416 74.3535 28.3037 74.3535 30.354V40.0813C74.3535 42.1316 76.0156 43.7937 78.0659 43.7937H87.7932C89.8435 43.7937 91.5056 42.1316 91.5056 40.0813V30.354C91.5056 28.3037 89.8435 26.6416 87.7932 26.6416Z" fill="#F1A21D"/>
<path d="M64.8196 26.6416H55.0923C53.042 26.6416 51.3799 28.3037 51.3799 30.354V40.0813C51.3799 42.1316 53.042 43.7937 55.0923 43.7937H64.8196C66.8699 43.7937 68.5319 42.1316 68.5319 40.0813V30.354C68.5319 28.3037 66.8699 26.6416 64.8196 26.6416Z" fill="#F1A21D"/>
<path d="M41.5051 26.6416H31.7778C29.7275 26.6416 28.0654 28.3037 28.0654 30.354V40.0813C28.0654 42.1316 29.7275 43.7937 31.7778 43.7937H41.5051C43.5554 43.7937 45.2175 42.1316 45.2175 40.0813V30.354C45.2175 28.3037 43.5554 26.6416 41.5051 26.6416Z" fill="#F1A21D"/>
<path d="M134.421 26.6416H124.694C122.644 26.6416 120.981 28.3037 120.981 30.354V40.0813C120.981 42.1316 122.644 43.7937 124.694 43.7937H134.421C136.471 43.7937 138.134 42.1316 138.134 40.0813V30.354C138.134 28.3037 136.471 26.6416 134.421 26.6416Z" fill="#F1A21D"/>
<path d="M157.735 26.6416H148.007C145.957 26.6416 144.295 28.3037 144.295 30.354V40.0813C144.295 42.1316 145.957 43.7937 148.007 43.7937H157.735C159.785 43.7937 161.447 42.1316 161.447 40.0813V30.354C161.447 28.3037 159.785 26.6416 157.735 26.6416Z" fill="#F1A21D"/>
<path d="M111.409 48.3066H101.757C99.6856 48.3066 98.0068 49.9854 98.0068 52.0563V61.709C98.0068 63.7799 99.6856 65.4587 101.757 65.4587H111.409C113.48 65.4587 115.159 63.7799 115.159 61.709V52.0563C115.159 49.9854 113.48 48.3066 111.409 48.3066Z" fill="#F1A21D"/>
<path d="M134.723 48.3066H125.07C122.999 48.3066 121.32 49.9854 121.32 52.0563V61.709C121.32 63.7799 122.999 65.4587 125.07 65.4587H134.723C136.794 65.4587 138.472 63.7799 138.472 61.709V52.0563C138.472 49.9854 136.794 48.3066 134.723 48.3066Z" fill="#F1A21D"/>
<path d="M158.037 48.3066H148.384C146.314 48.3066 144.635 49.9854 144.635 52.0563V61.709C144.635 63.7799 146.314 65.4587 148.384 65.4587H158.037C160.108 65.4587 161.787 63.7799 161.787 61.709V52.0563C161.787 49.9854 160.108 48.3066 158.037 48.3066Z" fill="#F1A21D"/>
<path d="M41.4678 48.3066H31.8151C29.7442 48.3066 28.0654 49.9854 28.0654 52.0563V61.709C28.0654 63.7799 29.7442 65.4587 31.8151 65.4587H41.4678C43.5387 65.4587 45.2175 63.7799 45.2175 61.709V52.0563C45.2175 49.9854 43.5387 48.3066 41.4678 48.3066Z" fill="#F1A21D"/>
<path d="M64.7822 48.3066H55.1296C53.0587 48.3066 51.3799 49.9854 51.3799 52.0563V61.709C51.3799 63.7799 53.0587 65.4587 55.1296 65.4587H64.7822C66.8531 65.4587 68.5319 63.7799 68.5319 61.709V52.0563C68.5319 49.9854 66.8531 48.3066 64.7822 48.3066Z" fill="#F1A21D"/>
<path d="M88.0947 48.3066H78.4421C76.3712 48.3066 74.6924 49.9854 74.6924 52.0563V61.709C74.6924 63.7799 76.3712 65.4587 78.4421 65.4587H88.0947C90.1656 65.4587 91.8444 63.7799 91.8444 61.709V52.0563C91.8444 49.9854 90.1656 48.3066 88.0947 48.3066Z" fill="#F1A21D"/>
<path d="M111.409 72.4363H101.757C99.6856 72.4363 98.0068 74.1151 98.0068 76.186V85.8386C98.0068 87.9095 99.6856 89.5883 101.757 89.5883H111.409C113.48 89.5883 115.159 87.9095 115.159 85.8386V76.186C115.159 74.1151 113.48 72.4363 111.409 72.4363Z" fill="#F1A21D"/>
<path d="M134.723 72.4363H125.07C122.999 72.4363 121.32 74.1151 121.32 76.186V85.8386C121.32 87.9095 122.999 89.5883 125.07 89.5883H134.723C136.794 89.5883 138.472 87.9095 138.472 85.8386V76.186C138.472 74.1151 136.794 72.4363 134.723 72.4363Z" fill="#F1A21D"/>
<path d="M158.037 72.4363H148.384C146.314 72.4363 144.635 74.1151 144.635 76.186V85.8386C144.635 87.9095 146.314 89.5883 148.384 89.5883H158.037C160.108 89.5883 161.787 87.9095 161.787 85.8386V76.186C161.787 74.1151 160.108 72.4363 158.037 72.4363Z" fill="#F1A21D"/>
<path d="M41.4678 72.4363H31.8151C29.7442 72.4363 28.0654 74.1151 28.0654 76.186V85.8386C28.0654 87.9095 29.7442 89.5883 31.8151 89.5883H41.4678C43.5387 89.5883 45.2175 87.9095 45.2175 85.8386V76.186C45.2175 74.1151 43.5387 72.4363 41.4678 72.4363Z" fill="#F1A21D"/>
<path d="M64.7822 72.4363H55.1296C53.0587 72.4363 51.3799 74.1151 51.3799 76.186V85.8386C51.3799 87.9095 53.0587 89.5883 55.1296 89.5883H64.7822C66.8531 89.5883 68.5319 87.9095 68.5319 85.8386V76.186C68.5319 74.1151 66.8531 72.4363 64.7822 72.4363Z" fill="#F1A21D"/>
<path d="M88.0947 72.4363H78.4421C76.3712 72.4363 74.6924 74.1151 74.6924 76.186V85.8386C74.6924 87.9095 76.3712 89.5883 78.4421 89.5883H88.0947C90.1656 89.5883 91.8444 87.9095 91.8444 85.8386V76.186C91.8444 74.1151 90.1656 72.4363 88.0947 72.4363Z" fill="#F1A21D"/>
<path d="M111.409 95.6703H101.757C99.6856 95.6703 98.0068 97.3491 98.0068 99.4201V109.073C98.0068 111.144 99.6856 112.822 101.757 112.822H111.409C113.48 112.822 115.159 111.144 115.159 109.073V99.4201C115.159 97.3491 113.48 95.6703 111.409 95.6703Z" fill="#F1A21D"/>
<path d="M134.384 95.3314H124.731C122.66 95.3314 120.981 97.0102 120.981 99.0811V108.734C120.981 110.805 122.66 112.483 124.731 112.483H134.384C136.455 112.483 138.134 110.805 138.134 108.734V99.0811C138.134 97.0102 136.455 95.3314 134.384 95.3314Z" fill="#F1A21D"/>
<path d="M157.697 95.3314H148.045C145.974 95.3314 144.295 97.0102 144.295 99.0811V108.734C144.295 110.805 145.974 112.483 148.045 112.483H157.697C159.768 112.483 161.447 110.805 161.447 108.734V99.0811C161.447 97.0102 159.768 95.3314 157.697 95.3314Z" fill="#F1A21D"/>
<path d="M41.4678 95.6703H31.8151C29.7442 95.6703 28.0654 97.3491 28.0654 99.4201V109.073C28.0654 111.144 29.7442 112.822 31.8151 112.822H41.4678C43.5387 112.822 45.2175 111.144 45.2175 109.073V99.4201C45.2175 97.3491 43.5387 95.6703 41.4678 95.6703Z" fill="#F1A21D"/>
<path d="M64.7822 95.6703H55.1296C53.0587 95.6703 51.3799 97.3491 51.3799 99.4201V109.073C51.3799 111.144 53.0587 112.822 55.1296 112.822H64.7822C66.8531 112.822 68.5319 111.144 68.5319 109.073V99.4201C68.5319 97.3491 66.8531 95.6703 64.7822 95.6703Z" fill="#F1A21D"/>
<path d="M88.0947 95.6703H78.4421C76.3712 95.6703 74.6924 97.3491 74.6924 99.4201V109.073C74.6924 111.144 76.3712 112.822 78.4421 112.822H88.0947C90.1656 112.822 91.8444 111.144 91.8444 109.073V99.4201C91.8444 97.3491 90.1656 95.6703 88.0947 95.6703Z" fill="#F1A21D"/>
<path d="M111.069 116.715H101.417C99.3458 116.715 97.667 118.394 97.667 120.465V130.118C97.667 132.188 99.3458 133.867 101.417 133.867H111.069C113.14 133.867 114.819 132.188 114.819 130.118V120.465C114.819 118.394 113.14 116.715 111.069 116.715Z" fill="#F1A21D"/>
<path d="M41.1279 116.715H31.4753C29.4044 116.715 27.7256 118.394 27.7256 120.465V130.118C27.7256 132.188 29.4044 133.867 31.4753 133.867H41.1279C43.1988 133.867 44.8776 132.188 44.8776 130.118V120.465C44.8776 118.394 43.1988 116.715 41.1279 116.715Z" fill="#F1A21D"/>
<path d="M64.4424 116.715H54.7897C52.7188 116.715 51.04 118.394 51.04 120.465V130.118C51.04 132.188 52.7188 133.867 54.7897 133.867H64.4424C66.5133 133.867 68.1921 132.188 68.1921 130.118V120.465C68.1921 118.394 66.5133 116.715 64.4424 116.715Z" fill="#F1A21D"/>
<path d="M87.7559 116.715H78.1032C76.0323 116.715 74.3535 118.394 74.3535 120.465V130.118C74.3535 132.188 76.0323 133.867 78.1032 133.867H87.7559C89.8268 133.867 91.5056 132.188 91.5056 130.118V120.465C91.5056 118.394 89.8268 116.715 87.7559 116.715Z" fill="#F1A21D"/>
</g>
<path d="M194.956 10.3223V16.4206H17.5098V10.3223C17.5094 9.07302 17.7552 7.83593 18.233 6.68166C18.7108 5.5274 19.4113 4.47857 20.2946 3.59508C21.1778 2.7116 22.2264 2.01076 23.3806 1.53261C24.5347 1.05445 25.7717 0.80835 27.021 0.80835H185.444C186.693 0.808493 187.93 1.05469 189.084 1.53289C190.238 2.01109 191.287 2.71192 192.17 3.59537C193.053 4.47882 193.754 5.52759 194.232 6.68179C194.71 7.836 194.956 9.07304 194.956 10.3223Z" fill="#292A2E"/>
<path d="M87.5396 118.613H78.3197C77.1772 118.613 76.251 119.539 76.251 120.681V129.901C76.251 131.044 77.1772 131.97 78.3197 131.97H87.5396C88.6822 131.97 89.6084 131.044 89.6084 129.901V120.681C89.6084 119.539 88.6822 118.613 87.5396 118.613Z" fill="white"/>
<path d="M40.4576 90.4294L29.0747 88.3696C28.7521 88.3112 28.4659 88.127 28.279 87.8575C28.0922 87.5881 28.02 87.2555 28.0783 86.9328L29.8386 77.2061L33.3422 74.8732L42.9578 76.6136C43.2804 76.672 43.5666 76.8561 43.7535 77.1255C43.9403 77.3949 44.0125 77.7275 43.9542 78.0501L41.8941 89.433C41.8653 89.5928 41.8052 89.7453 41.7174 89.8818C41.6296 90.0184 41.5157 90.1363 41.3823 90.2288C41.2489 90.3213 41.0986 90.3866 40.9399 90.4211C40.7813 90.4555 40.6174 90.4583 40.4576 90.4294Z" fill="#367CFF"/>
<path opacity="0.29" d="M33.3415 74.8734L29.8379 77.2062L32.83 77.7995L33.3415 74.8734Z" fill="#FFFFFA"/>
<g opacity="0.88">
<path d="M41.3475 83.7926C41.336 83.7929 41.3245 83.792 41.3131 83.7898L30.6617 81.82C30.6167 81.8117 30.5768 81.7859 30.5509 81.7482C30.525 81.7105 30.5151 81.664 30.5234 81.619C30.5317 81.574 30.5575 81.5342 30.5952 81.5082C30.6329 81.4823 30.6794 81.4724 30.7244 81.4807L41.3758 83.4506C41.4177 83.4584 41.4552 83.4814 41.4811 83.5153C41.507 83.5491 41.5195 83.5913 41.5161 83.6338C41.5127 83.6763 41.4937 83.716 41.4628 83.7453C41.4319 83.7746 41.3912 83.7915 41.3486 83.7926H41.3475Z" fill="white"/>
<path d="M40.9657 86.0268C40.9541 86.0269 40.9425 86.026 40.931 86.0241L30.2799 84.0542C30.2568 84.0509 30.2347 84.0429 30.2149 84.0309C30.195 84.0188 30.1778 84.0028 30.1642 83.9839C30.1507 83.965 30.1411 83.9436 30.136 83.9209C30.1309 83.8982 30.1305 83.8747 30.1347 83.8519C30.1389 83.829 30.1477 83.8072 30.1606 83.7878C30.1734 83.7684 30.19 83.7519 30.2094 83.739C30.2288 83.7262 30.2506 83.7175 30.2735 83.7133C30.2964 83.7091 30.3198 83.7096 30.3425 83.7147L40.9937 85.6845C41.0359 85.692 41.0738 85.715 41.0999 85.7489C41.1261 85.7828 41.1387 85.8253 41.1353 85.868C41.1319 85.9107 41.1127 85.9506 41.0815 85.98C41.0503 86.0093 41.0093 86.026 40.9665 86.0268H40.9657Z" fill="white"/>
<path d="M34.7165 86.9356C34.705 86.9359 34.6934 86.935 34.6821 86.9329L29.9576 86.0592C29.9346 86.0558 29.9125 86.0479 29.8926 86.0358C29.8727 86.0237 29.8555 86.0078 29.842 85.9889C29.8284 85.97 29.8188 85.9486 29.8137 85.9259C29.8087 85.9032 29.8082 85.8797 29.8124 85.8568C29.8167 85.8339 29.8255 85.8122 29.8383 85.7928C29.8511 85.7734 29.8678 85.7568 29.8872 85.744C29.9066 85.7312 29.9284 85.7224 29.9512 85.7182C29.9741 85.714 29.9976 85.7145 30.0203 85.7196L34.7448 86.5936C34.7867 86.6014 34.8242 86.6245 34.8501 86.6583C34.876 86.6922 34.8884 86.7344 34.8851 86.7769C34.8817 86.8193 34.8627 86.8591 34.8318 86.8884C34.8008 86.9177 34.7601 86.9345 34.7176 86.9356H34.7165Z" fill="white"/>
</g>
<path d="M41.3976 81.9771C41.3555 81.9771 41.3134 81.9732 41.272 81.9657L38.9672 81.5454C38.8763 81.5289 38.7896 81.4945 38.712 81.4443C38.6344 81.3942 38.5675 81.3291 38.5151 81.253C38.4627 81.1769 38.4259 81.0911 38.4068 81.0007C38.3877 80.9103 38.3866 80.817 38.4036 80.7262L38.7909 78.2789C38.8245 78.0974 38.928 77.9363 39.0792 77.8305C39.2304 77.7246 39.4172 77.6823 39.5992 77.7129L41.9111 78.108C42.0028 78.1236 42.0905 78.1571 42.1691 78.2069C42.2477 78.2566 42.3156 78.3215 42.3688 78.3978C42.4221 78.474 42.4597 78.5601 42.4793 78.651C42.499 78.7419 42.5004 78.8358 42.4834 78.9273L42.089 81.4015C42.0589 81.563 41.9733 81.7088 41.8471 81.8139C41.7208 81.919 41.5619 81.9767 41.3976 81.9771ZM39.4818 77.9753C39.3817 77.9756 39.2848 78.0107 39.2078 78.0745C39.1307 78.1383 39.0782 78.227 39.0593 78.3253L38.6721 80.7725C38.6612 80.8283 38.6614 80.8857 38.6729 80.9414C38.6843 80.9971 38.7067 81.05 38.7387 81.0969C38.7707 81.1439 38.8117 81.1841 38.8594 81.2151C38.907 81.2461 38.9604 81.2673 39.0163 81.2775L41.321 81.6978C41.4325 81.7174 41.5471 81.6924 41.6404 81.6283C41.7336 81.5642 41.7979 81.466 41.8195 81.3549L42.2144 78.8788C42.2249 78.8228 42.2242 78.7653 42.2122 78.7096C42.2003 78.6539 42.1774 78.6012 42.1449 78.5544C42.1124 78.5077 42.0709 78.4679 42.0228 78.4373C41.9748 78.4068 41.9211 78.3861 41.865 78.3765L39.5532 77.9813C39.5296 77.9773 39.5057 77.9753 39.4818 77.9753Z" fill="white"/>
<path d="M80.1883 129.7C80.1643 129.7 80.1401 129.7 80.1158 129.697C80.0049 129.687 79.8973 129.653 79.7998 129.6C79.7024 129.546 79.6172 129.472 79.5498 129.383L77.1284 126.198C76.9997 126.029 76.9435 125.816 76.9722 125.605C77.0009 125.394 77.1122 125.203 77.2815 125.075C77.4509 124.946 77.6644 124.89 77.8752 124.918C78.086 124.947 78.2767 125.058 78.4054 125.228L80.2957 127.714L87.5504 121.092C87.6282 121.021 87.7192 120.966 87.8183 120.93C87.9173 120.894 88.0225 120.878 88.1277 120.883C88.2329 120.888 88.3362 120.913 88.4315 120.958C88.5269 121.003 88.6125 121.066 88.6835 121.143C88.7545 121.221 88.8095 121.312 88.8454 121.411C88.8812 121.51 88.8971 121.615 88.8923 121.721C88.8875 121.826 88.862 121.929 88.8173 122.025C88.7726 122.12 88.7096 122.206 88.6318 122.277L80.7285 129.49C80.581 129.625 80.3883 129.7 80.1883 129.7Z" fill="#367CFF"/>
<path d="M185.655 37.8102L176.06 44.2716C175.925 44.3625 175.774 44.4259 175.614 44.4583C175.455 44.4907 175.291 44.4913 175.132 44.4602C174.972 44.4291 174.82 44.3669 174.685 44.277C174.55 44.1872 174.433 44.0715 174.343 43.9366L168.821 35.7379L169.706 31.6228L177.812 26.1643C177.947 26.0735 178.098 26.0101 178.257 25.9778C178.416 25.9455 178.58 25.9449 178.74 25.976C178.899 26.0071 179.051 26.0693 179.186 26.1591C179.322 26.2489 179.438 26.3645 179.529 26.4992L185.99 36.0941C186.081 36.2288 186.144 36.3801 186.176 36.5392C186.209 36.6984 186.209 36.8623 186.178 37.0217C186.147 37.181 186.085 37.3327 185.995 37.468C185.905 37.6033 185.789 37.7196 185.655 37.8102Z" fill="#0CBC8B"/>
<path opacity="0.29" d="M169.707 31.6224L168.822 35.7379L171.38 34.0765L169.707 31.6224Z" fill="#FFFFFA"/>
<g opacity="0.88">
<path d="M181.665 32.4329C181.656 32.4411 181.647 32.4485 181.637 32.455L172.63 38.4707C172.592 38.4934 172.547 38.5005 172.503 38.4907C172.46 38.4809 172.422 38.4549 172.398 38.418C172.373 38.3811 172.364 38.3363 172.372 38.2927C172.379 38.249 172.404 38.2101 172.439 38.1838L181.447 32.168C181.483 32.1445 181.526 32.1351 181.568 32.1415C181.61 32.1478 181.648 32.1695 181.675 32.2024C181.702 32.2353 181.716 32.277 181.714 32.3196C181.712 32.3621 181.695 32.4025 181.665 32.4329H181.665Z" fill="white"/>
<path d="M182.948 34.3003C182.94 34.3086 182.931 34.316 182.921 34.3224L173.913 40.3382C173.875 40.3608 173.83 40.368 173.787 40.3581C173.743 40.3483 173.706 40.3223 173.681 40.2854C173.657 40.2486 173.647 40.2037 173.655 40.1601C173.663 40.1165 173.687 40.0775 173.722 40.0512L182.73 34.0354C182.766 34.012 182.809 34.0025 182.851 34.0089C182.893 34.0152 182.931 34.037 182.958 34.0698C182.985 34.1027 182.999 34.1445 182.997 34.187C182.996 34.2296 182.978 34.2699 182.948 34.3003Z" fill="white"/>
<path d="M179.103 39.3097C179.094 39.318 179.085 39.3254 179.076 39.3318L175.082 42.0001C175.063 42.014 175.041 42.0239 175.019 42.0293C174.996 42.0346 174.972 42.0353 174.949 42.0313C174.926 42.0272 174.904 42.0185 174.885 42.0057C174.865 41.993 174.848 41.9763 174.835 41.9569C174.823 41.9374 174.814 41.9155 174.809 41.8925C174.805 41.8695 174.806 41.8459 174.811 41.8231C174.816 41.8003 174.826 41.7788 174.84 41.7599C174.853 41.741 174.871 41.7251 174.891 41.7131L178.886 39.0448C178.922 39.0214 178.965 39.0119 179.007 39.0183C179.049 39.0246 179.087 39.0464 179.115 39.0792C179.142 39.1121 179.156 39.1539 179.154 39.1964C179.152 39.239 179.134 39.2793 179.104 39.3097H179.103Z" fill="white"/>
</g>
<path d="M187.852 235.488H10.5951C10.5445 235.488 10.4959 235.468 10.4602 235.433C10.4244 235.397 10.4043 235.348 10.4043 235.298C10.4043 235.247 10.4244 235.199 10.4602 235.163C10.4959 235.127 10.5445 235.107 10.5951 235.107H187.852C187.903 235.107 187.951 235.127 187.987 235.163C188.023 235.199 188.043 235.247 188.043 235.298C188.043 235.348 188.023 235.397 187.987 235.433C187.951 235.468 187.903 235.488 187.852 235.488Z" fill="#292A2E"/>
<path d="M155.558 223.451C155.558 223.451 154.327 229.828 148.355 230.184C142.383 230.541 143.678 235.297 143.678 235.297H166.499V223.895L155.558 223.451Z" fill="#F1A21D"/>
<path d="M162.596 107.1C162.596 107.1 162.525 105.183 162.54 109.532C162.596 125.755 163.423 144.286 164.111 155.13C165.216 172.562 167.505 227.521 167.505 227.521L151.419 227.395L137.976 106.441L162.596 107.1Z" fill="#262626"/>
<path d="M145.342 126.444C145.342 126.444 144.72 138.218 144.606 140.982C144.339 147.374 144.101 154.033 144.101 161.537L141.883 141.825C141.883 141.825 143.612 135.66 145.342 126.444Z" fill="#0A0A0A"/>
<path d="M126.136 223.451C126.136 223.451 124.906 229.828 118.934 230.184C112.962 230.541 114.257 235.297 114.257 235.297H137.078V223.895L126.136 223.451Z" fill="#F1A21D"/>
<path d="M121.599 108.36C121.599 108.36 119.998 164.352 120.193 167.062L122.5 227.1L138.883 227.373L140.171 164.328C140.171 164.328 140.367 146.936 144.569 130.787C146.719 122.498 148.013 114.011 148.431 105.459L121.599 108.36Z" fill="#262626"/>
<path d="M162.76 107.099L162.809 107.101C162.809 107.101 162.773 106.156 162.76 107.099Z" fill="#333333"/>
<path d="M131.625 59.4016C131.674 59.3953 132.213 68.347 142.612 67.5665C149.812 67.0271 152.38 59.3888 152.544 59.3888C151.767 59.2252 150.46 58.984 150.116 58.8001C148.982 58.191 147.367 57.5571 147.002 55.3556C146.791 54.0867 147.149 47.5954 147.039 46.3115L136.2 48.7782C136.354 51.4895 137.435 57.7751 133.647 58.8889C133.017 59.0715 132.338 59.241 131.625 59.4016Z" fill="#E98862"/>
<path d="M136.505 53.007C140.869 53.3438 146.471 51.492 147.526 45.6681L148.478 40.4132C149.533 34.5896 147.329 29.3145 141.846 28.3214C136.362 27.3281 131.408 31.307 130.354 37.1306L129.933 39.4569C129.802 40.2582 129.726 41.0675 129.705 41.8791C129.634 44.0239 129.536 47.2861 130.597 49.6821C131.599 51.9444 133.716 52.7919 136.505 53.007Z" fill="#E98862"/>
<path d="M146.292 28.0229C144.559 27.4826 142.762 27.1768 140.949 27.1138C140.889 26.797 140.754 26.4993 140.555 26.2459C140.355 25.9925 140.098 25.791 139.804 25.6585C138.845 25.284 137.674 25.8871 136.895 27.0497C136.488 26.3545 135.852 25.8226 135.096 25.5451C132.95 24.8769 132.843 27.9605 132.843 27.9605C132.843 27.9605 129.439 24.6019 129.333 28.8855C129.204 34.0684 130.157 35.5897 130.851 35.9712C132.224 36.7291 133.245 36.6007 133.789 37.7154C135.433 41.0914 133.821 50.601 135.724 51.7917C138.64 53.6157 144.61 53.6787 146.549 53.5402C147.295 53.4857 147.994 52.6221 148.308 51.9438C149.322 49.7529 151.584 44.7864 152.214 42.7323C153.378 38.9434 153.29 30.3081 146.292 28.0229Z" fill="#0C0C0C"/>
<path d="M134.422 48.3957C136.106 48.2131 137.276 46.2637 137.093 44.5803C136.911 42.8969 135.445 42.1164 133.761 42.2993L133.016 43.5216L132.976 48.5532L134.422 48.3957Z" fill="#E98862"/>
<path d="M119.488 77.582C119.797 81.2154 121.302 103.883 121.599 108.359H162.58C162.811 104.322 163.851 86.6722 164.729 78.779C165.567 71.2469 167.211 67.4759 166.006 65.2491C164.036 61.6098 158.655 59.5069 154.986 59.0101C152.745 58.7068 149.375 58.4893 149.375 58.4893H133.596C132.097 58.4893 123.358 59.1946 121.427 60.6821C118.049 63.2844 118.832 69.8831 119.488 77.582Z" fill="#F1A21D"/>
<path d="M118.923 73.0309C118.888 73.031 118.855 73.0177 118.829 72.9937C118.804 72.9698 118.789 72.9371 118.787 72.9023L118.456 67.1329C118.454 67.0968 118.467 67.0614 118.491 67.0344C118.515 67.0074 118.548 66.9911 118.584 66.989C118.62 66.9873 118.656 66.9998 118.682 67.0237C118.709 67.0477 118.726 67.0812 118.728 67.1171L119.059 72.8867C119.06 72.9046 119.057 72.9225 119.051 72.9394C119.046 72.9564 119.036 72.9719 119.024 72.9853C119.013 72.9987 118.998 73.0095 118.982 73.0173C118.966 73.0251 118.948 73.0296 118.93 73.0306L118.923 73.0309Z" fill="#0C0C0C"/>
<path d="M171.44 108.122C172.645 108.122 173.833 107.831 174.901 107.273C175.97 106.715 176.888 105.908 177.577 104.919C178.266 103.93 178.706 102.789 178.86 101.594C179.013 100.398 178.876 99.1834 178.459 98.0524C178.036 96.9043 168.11 70.6209 166.221 65.7509L152.229 71.4194C153.292 74.1575 157.141 84.5364 160.234 92.8976L155.096 92.3392L153.479 107.215L170.631 108.078C170.899 108.107 171.17 108.122 171.44 108.122Z" fill="#F1A21D"/>
<path d="M163.454 78.9329L162.447 108.356L162.72 108.366L163.727 78.9422L163.454 78.9329Z" fill="#0C0C0C"/>
<path d="M89.5373 47.5496L77.1305 53.022C76.8618 53.1404 76.557 53.1473 76.2833 53.0411C76.0095 52.9349 75.7891 52.7243 75.6706 52.4557L71.0752 42.0367L72.8687 37.661L83.1716 33.1166C83.3046 33.0579 83.4479 33.026 83.5932 33.0227C83.7386 33.0195 83.8832 33.0448 84.0187 33.0974C84.1543 33.15 84.2781 33.2288 84.3832 33.3292C84.4883 33.4297 84.5726 33.5499 84.6313 33.6829L90.1036 46.09C90.222 46.3587 90.2289 46.6634 90.1227 46.9371C90.0165 47.2108 89.8059 47.4311 89.5373 47.5496Z" fill="#0CBC8B"/>
<path opacity="0.29" d="M72.8687 37.6615L71.0752 42.0372L74.2335 40.707L72.8687 37.6615Z" fill="#FFFFFA"/>
<g opacity="0.88">
<path d="M84.989 38.8176C84.9784 38.8251 84.9669 38.8315 84.9549 38.8366L73.8015 43.7051C73.7554 43.721 73.705 43.7191 73.6603 43.6995C73.6156 43.68 73.5799 43.6443 73.5603 43.5996C73.5407 43.555 73.5386 43.5045 73.5546 43.4584C73.5705 43.4123 73.6032 43.3739 73.6462 43.3508L84.7999 38.4823C84.8439 38.4635 84.8933 38.4616 84.9386 38.477C84.9839 38.4923 85.022 38.5239 85.0454 38.5656C85.0689 38.6073 85.0761 38.6562 85.0657 38.7029C85.0553 38.7496 85.028 38.7908 84.989 38.8186V38.8176Z" fill="white"/>
<path d="M85.9328 40.9271C85.9222 40.9347 85.9109 40.941 85.899 40.9462L74.7453 45.8146C74.699 45.8314 74.648 45.83 74.6028 45.8106C74.5575 45.7912 74.5214 45.7553 74.5016 45.7102C74.4819 45.6651 74.48 45.6142 74.4965 45.5678C74.5129 45.5214 74.5464 45.483 74.5902 45.4604L85.7436 40.5919C85.7877 40.5723 85.8376 40.5699 85.8834 40.585C85.9292 40.6002 85.9677 40.6319 85.9913 40.674C86.015 40.716 86.0221 40.7654 86.0113 40.8124C86.0004 40.8594 85.9724 40.9007 85.9328 40.9282V40.9271Z" fill="white"/>
<path d="M86.9836 43.246C86.973 43.2535 86.9617 43.2599 86.9498 43.2651L75.796 48.1335C75.7498 48.1503 75.6988 48.1489 75.6536 48.1295C75.6083 48.1101 75.5721 48.0742 75.5524 48.0291C75.5327 47.984 75.5308 47.933 75.5473 47.8866C75.5637 47.8402 75.5972 47.8018 75.641 47.7792L86.7944 42.9108C86.8385 42.8912 86.8883 42.8887 86.9341 42.9039C86.98 42.9191 87.0184 42.9508 87.0421 42.9928C87.0657 43.0349 87.0729 43.0843 87.062 43.1313C87.0512 43.1783 87.0232 43.2196 86.9836 43.2471V43.246Z" fill="white"/>
<path d="M81.7378 48.0243C81.7271 48.0318 81.7157 48.0382 81.7038 48.0434L76.7566 50.2027C76.7105 50.2186 76.66 50.2166 76.6153 50.1971C76.5706 50.1776 76.5349 50.1419 76.5154 50.0972C76.4958 50.0525 76.4937 50.0021 76.5096 49.956C76.5256 49.9099 76.5583 49.8715 76.6012 49.8484L81.5487 47.6891C81.5927 47.6703 81.6421 47.6684 81.6874 47.6837C81.7327 47.6991 81.7708 47.7307 81.7942 47.7724C81.8177 47.8141 81.8249 47.863 81.8145 47.9097C81.8041 47.9564 81.7768 47.9976 81.7378 48.0254V48.0243Z" fill="white"/>
</g>
<path d="M79.2835 46.5987C79.2269 46.4486 79.1403 46.3115 79.029 46.1959C78.9177 46.0804 78.784 45.9887 78.6361 45.9265C78.4882 45.8643 78.3291 45.8329 78.1687 45.8342C78.0082 45.8355 77.8497 45.8694 77.7028 45.934C77.4231 46.0689 77.2049 46.3049 77.0924 46.5944C76.98 46.8839 76.9815 47.2053 77.0967 47.4937L77.4894 49.1207C77.5725 49.4648 77.5268 49.8275 77.3609 50.1402C77.195 50.453 76.9203 50.6941 76.5887 50.8183C76.2637 50.94 75.9058 50.9411 75.5801 50.8213C75.2544 50.7015 74.9825 50.4688 74.8138 50.1656C74.8138 50.1656 72.3667 44.9965 72.3204 44.7861C71.919 45.1778 71.2188 46.1411 71.0752 46.8674C71.07 46.8712 71.7838 52.6723 72.1828 53.081L76.3227 59.4664C78.0151 61.2005 83.696 58.3152 83.696 58.3152L79.2835 46.5987Z" fill="#E98862"/>
<path d="M96.2939 94.2766C94.9076 94.2765 93.5449 93.9179 92.338 93.2357C91.1312 92.5534 90.1213 91.5707 89.4063 90.383L71.585 60.7786L85.361 52.4864L98.908 74.9931L121.428 60.6854L130.968 73.4778L100.645 92.999C99.3474 93.8335 97.8369 94.2771 96.2939 94.2766Z" fill="#F1A21D"/>
<path d="M119.716 80.8489C119.686 80.8489 119.656 80.8386 119.632 80.8198C119.608 80.8009 119.591 80.7745 119.584 80.7449C119.577 80.7152 119.58 80.684 119.592 80.6562C119.605 80.6284 119.627 80.6056 119.654 80.5916L123.545 78.5836C123.577 78.567 123.614 78.5639 123.649 78.5749C123.683 78.5859 123.712 78.6101 123.729 78.6422C123.745 78.6743 123.748 78.7117 123.737 78.7462C123.726 78.7806 123.702 78.8093 123.67 78.8259L119.779 80.8336C119.759 80.8436 119.738 80.8488 119.716 80.8489Z" fill="#0C0C0C"/>
<path d="M131.423 59.3397L133.355 56.3198C133.439 56.1875 133.556 56.0786 133.694 56.0031C133.831 55.9277 133.986 55.8881 134.143 55.8881H148.705C148.836 55.8881 148.966 55.9157 149.085 55.9691C149.205 56.0225 149.312 56.1005 149.4 56.198L152.229 59.3397H131.423Z" fill="#F1A21D"/>
<path d="M18.9462 180.293L18.4756 180.344L24.2854 233.436L24.756 233.385L18.9462 180.293Z" fill="#292A2E"/>
<path d="M33.9939 203.471L31.1357 231.747L31.6067 231.794L34.4649 203.519L33.9939 203.471Z" fill="#292A2E"/>
<path d="M38.9093 228.329H17.7012V235.211H38.9093V228.329Z" fill="#292A2E"/>
<path opacity="0.2" d="M38.9093 228.329H17.7012V235.211H38.9093V228.329Z" fill="white"/>
<path d="M51.6945 215.656C55.7121 210.316 53.7969 202.096 47.4167 197.295C41.0366 192.495 32.6075 192.932 28.5899 198.272C24.5723 203.611 26.4876 211.832 32.8677 216.632C39.2478 221.433 47.6769 220.995 51.6945 215.656Z" fill="#0CBC8B"/>
<path opacity="0.2" d="M51.6945 215.656C55.7121 210.316 53.7969 202.096 47.4167 197.295C41.0366 192.495 32.6075 192.932 28.5899 198.272C24.5723 203.611 26.4876 211.832 32.8677 216.632C39.2478 221.433 47.6769 220.995 51.6945 215.656Z" fill="white"/>
<path opacity="0.5" d="M51.6929 215.657C51.4231 216.017 51.1287 216.358 50.8118 216.677C46.3893 219.503 39.8614 219.058 34.6828 215.161C28.3032 210.362 26.3885 202.141 30.4066 196.802C30.6768 196.442 30.9704 196.101 31.2855 195.781C35.7103 192.953 42.2359 193.4 47.4167 197.295C53.796 202.097 55.7108 210.317 51.6929 215.657Z" fill="white"/>
<path d="M22.0961 195.397C28.4166 190.518 30.1344 182.151 25.933 176.708C21.7317 171.266 13.2021 170.808 6.88164 175.687C0.561218 180.566 -1.15662 188.933 3.04475 194.376C7.24611 199.819 15.7757 200.276 22.0961 195.397Z" fill="#0CBC8B"/>
<path opacity="0.2" d="M20.0961 193.997C15.2012 197.778 8.98052 198.354 4.47129 195.893C3.9494 195.434 3.47276 194.925 3.04788 194.375C-1.15559 188.933 0.562153 180.565 6.88234 175.687C11.7772 171.909 17.9979 171.33 22.505 173.789C23.0279 174.249 23.5052 174.758 23.9303 175.31C28.1327 180.751 26.4149 189.12 20.0961 193.997Z" fill="white"/>
</g>
<defs>
<clipPath id="clip0_93_1492">
<rect width="194.509" height="234.977" fill="white" transform="translate(0.746094 0.511475)"/>
</clipPath>
</defs>
</svg>
