<svg width="176" height="214" viewBox="0 0 176 214" fill="none" xmlns="http://www.w3.org/2000/svg">
<g clip-path="url(#clip0_93_1288)">
<path d="M164.482 3.92669L5.88086 8.98853L12.295 209.963L170.896 204.901L164.482 3.92669Z" fill="#292A2E"/>
<path opacity="0.58" d="M164.482 3.92669L5.88086 8.98853L12.295 209.963L170.896 204.901L164.482 3.92669Z" fill="white"/>
<path d="M158.681 0.4259L0.807617 13.4498L17.3171 213.574L175.19 200.55L158.681 0.4259Z" fill="white"/>
<path d="M158.557 0.57311L175.045 200.426L17.442 213.427L0.95519 13.5743L158.558 0.57311M158.806 0.279053L0.661133 13.3252L17.1926 213.721L175.338 200.675L158.806 0.279053Z" fill="black"/>
<path d="M147.942 14.5119L75.8838 20.4564L76.3136 25.6669L148.371 19.7224L147.942 14.5119Z" fill="#292A2E"/>
<path d="M149.165 28.6958L77.0791 34.6246L77.1014 34.8963L149.187 28.9675L149.165 28.6958Z" fill="black"/>
<path d="M149.955 38.2643L77.8691 44.1931L77.8915 44.4648L149.977 38.536L149.955 38.2643Z" fill="black"/>
<path d="M150.745 47.833L78.6592 53.7618L78.6815 54.0336L150.767 48.1047L150.745 47.833Z" fill="black"/>
<path d="M151.534 57.4016L79.4482 63.3304L79.4706 63.6022L151.556 57.6733L151.534 57.4016Z" fill="black"/>
<path d="M112.613 70.2418L80.2383 72.9045L80.2606 73.1763L112.635 70.5135L112.613 70.2418Z" fill="black"/>
<path d="M153.524 82.1742L19.292 93.2478L19.7218 98.4583L153.954 87.3847L153.524 82.1742Z" fill="#292A2E"/>
<path d="M88.4109 158.427L33.6201 162.933L33.6425 163.205L88.4333 158.699L88.4109 158.427Z" fill="black"/>
<path d="M89.3406 169.688L34.5498 174.194L34.5722 174.466L89.363 169.96L89.3406 169.688Z" fill="black"/>
<path d="M90.2693 180.949L35.4785 185.456L35.5009 185.727L90.2917 181.221L90.2693 180.949Z" fill="black"/>
<path d="M91.1981 192.21L36.4072 196.717L36.4296 196.988L91.2204 192.482L91.1981 192.21Z" fill="black"/>
<path d="M27.9152 165.612C29.5069 165.612 30.7972 164.322 30.7972 162.73C30.7972 161.139 29.5069 159.849 27.9152 159.849C26.3235 159.849 25.0332 161.139 25.0332 162.73C25.0332 164.322 26.3235 165.612 27.9152 165.612Z" fill="#292A2E"/>
<path d="M30.7638 200.135C32.3555 200.135 33.6458 198.845 33.6458 197.253C33.6458 195.661 32.3555 194.371 30.7638 194.371C29.1721 194.371 27.8818 195.661 27.8818 197.253C27.8818 198.845 29.1721 200.135 30.7638 200.135Z" fill="#292A2E"/>
<path d="M29.8351 188.878C31.4268 188.878 32.7171 187.588 32.7171 185.996C32.7171 184.404 31.4268 183.114 29.8351 183.114C28.2434 183.114 26.9531 184.404 26.9531 185.996C26.9531 187.588 28.2434 188.878 29.8351 188.878Z" fill="#292A2E"/>
<path d="M28.8751 177.245C30.4668 177.245 31.7571 175.955 31.7571 174.363C31.7571 172.772 30.4668 171.481 28.8751 171.481C27.2835 171.481 25.9932 172.772 25.9932 174.363C25.9932 175.955 27.2835 177.245 28.8751 177.245Z" fill="#292A2E"/>
<path d="M159.385 152.572L104.594 157.078L104.616 157.35L159.407 152.843L159.385 152.572Z" fill="black"/>
<path d="M160.314 163.833L105.523 168.339L105.546 168.611L160.337 164.105L160.314 163.833Z" fill="black"/>
<path d="M161.243 175.094L106.452 179.6L106.474 179.872L161.265 175.366L161.243 175.094Z" fill="black"/>
<path d="M162.173 186.355L107.382 190.862L107.404 191.133L162.195 186.627L162.173 186.355Z" fill="black"/>
<path d="M98.8634 159.759C100.455 159.759 101.745 158.469 101.745 156.877C101.745 155.286 100.455 153.995 98.8634 153.995C97.2717 153.995 95.9814 155.286 95.9814 156.877C95.9814 158.469 97.2717 159.759 98.8634 159.759Z" fill="#292A2E"/>
<path d="M101.711 194.282C103.303 194.282 104.593 192.992 104.593 191.4C104.593 189.808 103.303 188.518 101.711 188.518C100.119 188.518 98.8291 189.808 98.8291 191.4C98.8291 192.992 100.119 194.282 101.711 194.282Z" fill="#292A2E"/>
<path d="M100.782 183.025C102.374 183.025 103.664 181.735 103.664 180.143C103.664 178.552 102.374 177.261 100.782 177.261C99.1907 177.261 97.9004 178.552 97.9004 180.143C97.9004 181.735 99.1907 183.025 100.782 183.025Z" fill="#292A2E"/>
<path d="M99.8234 171.392C101.415 171.392 102.705 170.102 102.705 168.511C102.705 166.919 101.415 165.629 99.8234 165.629C98.2317 165.629 96.9414 166.919 96.9414 168.511C96.9414 170.102 98.2317 171.392 99.8234 171.392Z" fill="#292A2E"/>
<path d="M43.0196 51.8138C48.2588 51.8138 52.506 47.5665 52.506 42.3273C52.506 37.0881 48.2588 32.8409 43.0196 32.8409C37.7804 32.8409 33.5332 37.0881 33.5332 42.3273C33.5332 47.5665 37.7804 51.8138 43.0196 51.8138Z" fill="#F1A21D"/>
<path d="M66.7794 65.7345C64.45 69.2052 61.3687 72.1066 57.7643 74.2234C54.16 76.3401 50.1251 77.6177 45.9593 77.9613C41.7935 78.305 37.6038 77.7059 33.7013 76.2085C29.7987 74.711 26.2837 72.3538 23.417 69.3117C25.6734 65.7495 28.7253 62.7593 32.3328 60.5761C35.9402 58.3929 40.0049 57.0762 44.2073 56.7295C48.4097 56.3828 52.6353 57.0156 56.5517 58.5781C60.4682 60.1406 63.9689 62.5903 66.7786 65.7345H66.7794Z" fill="#F1A21D"/>
<path d="M43.7028 22.6594C50.8137 22.6671 57.6466 25.4229 62.7732 30.3508C67.8997 35.2787 70.9232 41.9974 71.2118 49.1025C71.5003 56.2077 69.0315 63.1494 64.3214 68.4768C59.6113 73.8042 53.0244 77.1049 45.9375 77.6892C45.1744 77.7522 44.4018 77.784 43.6404 77.784C36.5294 77.7763 29.6965 75.0205 24.57 70.0926C19.4434 65.1647 16.4199 58.446 16.1314 51.3409C15.8428 44.2357 18.3116 37.294 23.0217 31.9666C27.7318 26.6392 34.3187 23.3385 41.4056 22.7542C42.1687 22.6913 42.9405 22.6594 43.7028 22.6594ZM43.703 22.3868C42.9361 22.3868 42.1616 22.4185 41.3838 22.4825C37.7409 22.7828 34.1928 23.7976 30.9421 25.4692C27.6914 27.1407 24.8018 29.4362 22.4383 32.2245C20.0748 35.0128 18.2836 38.2394 17.1671 41.72C16.0506 45.2005 15.6306 48.8669 15.9311 52.5098C16.5049 59.4666 19.6717 65.9539 24.8036 70.6856C29.9356 75.4174 36.658 78.0482 43.6384 78.0566C44.4055 78.0566 45.1787 78.0246 45.9579 77.9606C49.6007 77.6602 53.1486 76.6452 56.3991 74.9735C59.6496 73.3019 62.539 71.0064 64.9024 68.2181C67.2657 65.4298 69.0567 62.2033 70.1732 58.7228C71.2896 55.2423 71.7095 51.5761 71.409 47.9333C70.8352 40.9765 67.6684 34.4892 62.5364 29.7575C57.4044 25.0258 50.6818 22.3951 43.7014 22.3868H43.703Z" fill="black"/>
<path d="M154.861 97.7276L20.5771 108.772L20.5995 109.044L154.883 97.9993L154.861 97.7276Z" fill="black"/>
<path d="M155.592 107.25L21.3584 118.305L21.3807 118.576L155.614 107.521L155.592 107.25Z" fill="black"/>
<path d="M156.382 116.815L22.1484 127.87L22.1708 128.141L156.404 117.087L156.382 116.815Z" fill="black"/>
<path d="M157.17 126.38L22.9365 137.435L22.9589 137.707L157.192 126.652L157.17 126.38Z" fill="black"/>
<path d="M56.1101 144.397L23.7354 147.06L23.7577 147.331L56.1325 144.669L56.1101 144.397Z" fill="black"/>
<path d="M18.7145 3.06711C19.7427 3.21839 20.6728 3.76042 21.3114 4.58032C21.9499 5.40023 22.2475 6.43483 22.1424 7.4687L20.7171 22.8665C20.6454 23.6741 20.256 24.4203 19.6346 24.941C19.0131 25.4617 18.2103 25.7144 17.4026 25.6436C16.6227 25.5568 15.908 25.1677 15.4118 24.5598C14.9156 23.9519 14.6776 23.1737 14.7487 22.3923L16.2146 6.56064C16.2548 6.06454 16.4775 5.60097 16.8397 5.25961C17.2019 4.91825 17.6779 4.72335 18.1755 4.71263C18.4503 4.71185 18.7222 4.76844 18.9739 4.87879C19.2256 4.98913 19.4515 5.15081 19.6371 5.35346C19.8227 5.55611 19.964 5.79528 20.0519 6.05566C20.1398 6.31605 20.1723 6.59191 20.1475 6.8656L19.1187 17.9787C19.1062 18.1125 19.0412 18.2359 18.9378 18.3218C18.8344 18.4076 18.7012 18.4489 18.5674 18.4366C18.501 18.4304 18.4366 18.4112 18.3777 18.3802C18.3188 18.3491 18.2666 18.3067 18.2241 18.2554C18.1816 18.2041 18.1496 18.1449 18.13 18.0813C18.1104 18.0176 18.1035 17.9507 18.1098 17.8844L19.1345 6.81518C19.1611 6.57329 19.0975 6.33009 18.9559 6.13219C18.8143 5.93429 18.6046 5.79563 18.3671 5.74278C18.2355 5.71737 18.1001 5.71976 17.9696 5.74979C17.8391 5.77983 17.7163 5.83685 17.6091 5.91719C17.5019 5.99753 17.4127 6.09941 17.3472 6.21628C17.2818 6.33315 17.2415 6.46243 17.229 6.59579L15.7631 22.428C15.7112 22.925 15.8455 23.4236 16.1401 23.8272C16.4347 24.2309 16.8685 24.5109 17.3576 24.6131C17.6288 24.6647 17.9078 24.6591 18.1767 24.5966C18.4455 24.5341 18.6984 24.4161 18.9191 24.2502C19.1397 24.0843 19.3233 23.8741 19.458 23.6332C19.5927 23.3922 19.6756 23.1258 19.7013 22.851L21.1359 7.35615C21.213 6.55814 20.9701 5.76218 20.4606 5.14315C19.9511 4.52413 19.2168 4.13266 18.4188 4.05475C17.6452 3.99727 16.8799 4.24557 16.2873 4.74629C15.6947 5.24701 15.3223 5.9602 15.2499 6.7326L14.0189 20.0257C14.0128 20.0919 13.9936 20.1563 13.9626 20.2151C13.9316 20.274 13.8893 20.3261 13.8382 20.3686C13.787 20.4111 13.7279 20.4431 13.6644 20.4628C13.6009 20.4824 13.5341 20.4894 13.4678 20.4832C13.4016 20.4772 13.3372 20.4581 13.2783 20.4271C13.2194 20.3961 13.1672 20.3538 13.1247 20.3026C13.0822 20.2514 13.0502 20.1924 13.0305 20.1288C13.0108 20.0653 13.0038 19.9984 13.01 19.9322L14.2407 6.63913C14.2906 6.1071 14.4472 5.59059 14.7012 5.12044C14.9551 4.65029 15.3012 4.23614 15.7188 3.90273C16.1364 3.56932 16.6169 3.32349 17.1316 3.17992C17.6463 3.03635 18.1847 2.99798 18.7145 3.06711Z" fill="#BA7400"/>
</g>
<defs>
<clipPath id="clip0_93_1288">
<rect width="174.676" height="213.442" fill="white" transform="translate(0.661133 0.279053)"/>
</clipPath>
</defs>
</svg>
