<svg width="274" height="264" viewBox="0 0 274 264" fill="none" xmlns="http://www.w3.org/2000/svg">
<g clip-path="url(#clip0_93_1370)">
<path d="M233.526 4.47192H186.635V65.5066H233.526V4.47192Z" fill="#F4F4F4"/>
<path d="M233.526 65.5068H235.047V4.47214H233.526V65.5068Z" fill="#F4F4F4"/>
<path opacity="0.05" d="M233.526 65.5068H235.047V4.47214H233.526V65.5068Z" fill="#292A2E"/>
<path opacity="0.05" d="M224.983 15.5901H195.176V54.3885H224.983V15.5901Z" fill="#292A2E"/>
<path opacity="0.03" d="M224.984 15.5901H223.431V54.3885H224.984V15.5901Z" fill="#292A2E"/>
<path d="M271.875 80.5164H233.525V119.218H271.875V80.5164Z" fill="#F4F4F4"/>
<path opacity="0.05" d="M264.89 87.5664H240.512V112.168H264.89V87.5664Z" fill="#292A2E"/>
<path d="M271.875 119.218H273.396V80.5163H271.875V119.218Z" fill="#F4F4F4"/>
<path opacity="0.05" d="M271.875 119.218H273.396V80.5163H271.875V119.218Z" fill="#292A2E"/>
<path opacity="0.03" d="M264.889 87.5664H263.336V112.168H264.889V87.5664Z" fill="#292A2E"/>
<path d="M133.441 0.549561H5.69141V128.299H133.441V0.549561Z" fill="#F4F4F4"/>
<path d="M134.905 0.549561H133.44V128.299H134.905V0.549561Z" fill="#F4F4F4"/>
<path opacity="0.05" d="M134.905 0.549561H133.44V128.299H134.905V0.549561Z" fill="#292A2E"/>
<path opacity="0.05" d="M102.494 88.5793V55.156H75.115V74.5741H32.7054V108.957H14.6807V128.299H32.7054H36.1779H127.296V88.5793H102.494Z" fill="#292A2E"/>
<path opacity="0.34" d="M98.5665 58.7849H78.6289V62.4139H98.5665V58.7849Z" fill="#FFFFFA"/>
<path opacity="0.34" d="M98.5665 66.305H78.6289V69.934H98.5665V66.305Z" fill="#FFFFFA"/>
<path opacity="0.34" d="M98.5665 73.8252H78.6289V77.4542H98.5665V73.8252Z" fill="#FFFFFA"/>
<path opacity="0.34" d="M123.76 92.1018H120.085V95.7308H123.76V92.1018Z" fill="#FFFFFA"/>
<path opacity="0.34" d="M123.76 99.6219H120.085V103.251H123.76V99.6219Z" fill="#FFFFFA"/>
<path opacity="0.34" d="M123.76 107.142H120.085V110.771H123.76V107.142Z" fill="#FFFFFA"/>
<path opacity="0.34" d="M116.962 92.1018H113.287V95.7308H116.962V92.1018Z" fill="#FFFFFA"/>
<path opacity="0.34" d="M116.962 99.6219H113.287V103.251H116.962V99.6219Z" fill="#FFFFFA"/>
<path opacity="0.34" d="M116.962 107.142H113.287V110.771H116.962V107.142Z" fill="#FFFFFA"/>
<path opacity="0.34" d="M110.348 92.1018H106.673V95.7308H110.348V92.1018Z" fill="#FFFFFA"/>
<path opacity="0.34" d="M110.348 99.6219H106.673V103.251H110.348V99.6219Z" fill="#FFFFFA"/>
<path opacity="0.34" d="M110.348 107.142H106.673V110.771H110.348V107.142Z" fill="#FFFFFA"/>
<path d="M133.441 63.7075H107.735V0.549561H105.609V63.7075H36.1769V0.549561H34.0509V63.7075H5.69141V65.8335H34.0509V128.299H36.1769V65.8335H105.609V128.299H107.735V65.8335H133.441V63.7075Z" fill="white"/>
<path d="M138.53 128.145H0.602539V132.393H138.53V128.145Z" fill="#F4F4F4"/>
<path opacity="0.1" d="M138.53 128.145H0.602539V132.393H138.53V128.145Z" fill="#292A2E"/>
<path opacity="0.1" d="M140.522 128.145H138.53V132.393H140.522V128.145Z" fill="#292A2E"/>
<path opacity="0.1" d="M140.522 128.145H138.53V132.393H140.522V128.145Z" fill="#292A2E"/>
<path opacity="0.05" d="M205.965 258.048H198.868V262.787H205.965V258.048Z" fill="#292A2E"/>
<path opacity="0.05" d="M250.512 258.048H243.416V262.787H250.512V258.048Z" fill="#292A2E"/>
<path d="M257.017 185.842H192.363V258.048H257.017V185.842Z" fill="#F4F4F4"/>
<path opacity="0.03" d="M257.017 185.842H192.363V258.048H257.017V185.842Z" fill="#292A2E"/>
<path d="M239.847 185.842H175.192V258.048H239.847V185.842Z" fill="#F4F4F4"/>
<path opacity="0.05" d="M188.794 258.048H181.697V262.787H188.794V258.048Z" fill="#292A2E"/>
<path opacity="0.05" d="M233.341 258.048H226.245V262.787H233.341V258.048Z" fill="#292A2E"/>
<path opacity="0.7" d="M236.368 190.307H178.67V208.62H236.368V190.307Z" fill="white"/>
<path opacity="0.7" d="M236.368 213.103H178.67V231.416H236.368V213.103Z" fill="white"/>
<path opacity="0.7" d="M236.368 235.898H178.67V254.211H236.368V235.898Z" fill="white"/>
<path opacity="0.05" d="M207.519 202.026C208.934 202.026 210.081 200.879 210.081 199.463C210.081 198.048 208.934 196.901 207.519 196.901C206.103 196.901 204.956 198.048 204.956 199.463C204.956 200.879 206.103 202.026 207.519 202.026Z" fill="#292A2E"/>
<path opacity="0.05" d="M207.519 224.822C208.934 224.822 210.081 223.675 210.081 222.259C210.081 220.844 208.934 219.697 207.519 219.697C206.103 219.697 204.956 220.844 204.956 222.259C204.956 223.675 206.103 224.822 207.519 224.822Z" fill="#292A2E"/>
<path opacity="0.05" d="M207.519 247.618C208.934 247.618 210.081 246.47 210.081 245.055C210.081 243.64 208.934 242.492 207.519 242.492C206.103 242.492 204.956 243.64 204.956 245.055C204.956 246.47 206.103 247.618 207.519 247.618Z" fill="#292A2E"/>
<path d="M30.9893 227.711C30.9535 227.711 30.9181 227.704 30.885 227.69C30.8519 227.676 30.8219 227.656 30.7967 227.631C30.4127 227.247 29.7867 220.202 28.1008 199.227C27.411 190.645 26.7594 182.538 26.2839 177.612C26.2501 177.26 26.1135 177.219 26.0688 177.205C25.4178 177.009 23.4384 178.57 22.3333 179.937C22.2878 179.993 22.2219 180.029 22.15 180.037C22.0781 180.044 22.0061 180.023 21.9499 179.978C21.8936 179.932 21.8578 179.866 21.8501 179.794C21.8425 179.722 21.8638 179.65 21.9093 179.594C22.6402 178.69 25.0221 176.321 26.2255 176.684C26.4681 176.756 26.7706 176.968 26.8251 177.559C27.3012 182.49 27.9528 190.599 28.6429 199.184C29.6673 211.93 30.8277 226.37 31.2093 227.279C31.2385 227.32 31.2559 227.368 31.2596 227.418C31.2633 227.468 31.2532 227.518 31.2303 227.563C31.2075 227.607 31.1727 227.645 31.13 227.671C31.0872 227.697 31.0381 227.711 30.988 227.711H30.9893Z" fill="#494949"/>
<path d="M25.5841 186.652C30.1064 183.027 31.6052 177.385 28.9319 174.05C26.2586 170.715 20.4254 170.95 15.9031 174.575C11.3809 178.2 9.882 183.842 12.5553 187.177C15.2286 190.512 21.0618 190.277 25.5841 186.652Z" fill="#0CBC8B"/>
<path opacity="0.2" d="M25.5841 186.652C30.1064 183.027 31.6052 177.385 28.9319 174.05C26.2586 170.715 20.4254 170.95 15.9031 174.575C11.3809 178.2 9.882 183.842 12.5553 187.177C15.2286 190.512 21.0618 190.277 25.5841 186.652Z" fill="white"/>
<path d="M13.8228 188.025C13.7969 188.025 13.7716 188.018 13.7497 188.004C13.7279 187.99 13.7105 187.97 13.6995 187.947C13.6885 187.923 13.6844 187.897 13.6876 187.872C13.6909 187.846 13.7014 187.822 13.7179 187.802L26.606 172.26C26.6174 172.246 26.6314 172.235 26.6473 172.226C26.6631 172.218 26.6804 172.213 26.6983 172.211C26.7161 172.209 26.7341 172.211 26.7512 172.217C26.7683 172.222 26.7842 172.231 26.7979 172.242C26.8117 172.253 26.8231 172.267 26.8315 172.283C26.8398 172.299 26.845 172.316 26.8466 172.334C26.8483 172.352 26.8464 172.37 26.8411 172.387C26.8358 172.404 26.8272 172.42 26.8158 172.434L13.9277 187.976C13.9149 187.991 13.8989 188.004 13.8808 188.012C13.8626 188.021 13.8428 188.025 13.8228 188.025Z" fill="white"/>
<path d="M33.7997 224.379C33.7693 224.379 33.739 224.374 33.7103 224.364C33.6421 224.34 33.586 224.29 33.5546 224.225C33.5231 224.16 33.5187 224.085 33.5425 224.017L38.3836 210.094C38.5262 209.685 38.7691 209.319 39.0901 209.028C39.4111 208.737 39.7999 208.531 40.221 208.43C40.6421 208.328 41.0819 208.334 41.5002 208.446C41.9186 208.558 42.302 208.774 42.6155 209.073L45.175 211.518C45.2273 211.568 45.2576 211.636 45.2593 211.709C45.261 211.781 45.2338 211.851 45.1839 211.903C45.1339 211.956 45.0653 211.986 44.993 211.987C44.9207 211.989 44.8507 211.962 44.7984 211.912L42.2391 209.467C41.9916 209.231 41.6889 209.061 41.3587 208.972C41.0284 208.883 40.6811 208.879 40.3487 208.959C40.0163 209.039 39.7093 209.202 39.4559 209.431C39.2025 209.661 39.0107 209.95 38.8982 210.273L34.0573 224.196C34.0387 224.249 34.0039 224.296 33.9578 224.329C33.9116 224.362 33.8564 224.379 33.7997 224.379Z" fill="#494949"/>
<path d="M52.3251 219.225C55.6765 216.572 55.4773 210.738 51.8802 206.194C48.2831 201.649 42.6502 200.116 39.2988 202.768C35.9473 205.421 36.1465 211.256 39.7436 215.8C43.3407 220.345 48.9736 221.878 52.3251 219.225Z" fill="#0CBC8B"/>
<path d="M28.79 226.823C28.7288 226.823 28.6693 226.802 28.6213 226.764C28.5732 226.726 28.5393 226.673 28.5251 226.614L20.4008 192.645C20.3452 192.413 20.2269 192.201 20.0588 192.033C19.8907 191.864 19.6794 191.745 19.4481 191.689C19.2169 191.633 18.9745 191.641 18.7477 191.713C18.521 191.786 18.3186 191.919 18.1628 192.099L15.6582 194.993C15.6352 195.022 15.6067 195.045 15.5745 195.062C15.5423 195.079 15.507 195.089 15.4707 195.092C15.4344 195.096 15.3979 195.091 15.3632 195.08C15.3286 195.069 15.2966 195.051 15.269 195.027C15.2415 195.003 15.219 194.974 15.2029 194.941C15.1868 194.909 15.1774 194.873 15.1753 194.837C15.1731 194.8 15.1783 194.764 15.1905 194.73C15.2027 194.695 15.2216 194.664 15.2462 194.637L17.7504 191.743C17.9718 191.487 18.2595 191.297 18.5818 191.194C18.9041 191.091 19.2486 191.079 19.5774 191.159C19.9062 191.239 20.2065 191.408 20.4453 191.648C20.6841 191.888 20.8522 192.189 20.9311 192.518L29.0549 226.487C29.0717 226.557 29.0599 226.631 29.022 226.693C28.9842 226.755 28.9235 226.799 28.8532 226.815C28.8325 226.82 28.8113 226.823 28.79 226.823Z" fill="#494949"/>
<path d="M25.7923 202.54C26.7799 196.829 24.1662 191.609 19.9544 190.881C15.7427 190.152 11.5277 194.192 10.5402 199.903C9.55256 205.614 12.1663 210.834 16.378 211.562C20.5898 212.29 24.8047 208.251 25.7923 202.54Z" fill="#0CBC8B"/>
<path d="M30.9897 227.711C30.9785 227.711 30.9673 227.71 30.9562 227.709C30.9207 227.704 30.8863 227.693 30.8552 227.675C30.824 227.658 30.7966 227.634 30.7746 227.606C30.7525 227.578 30.7362 227.546 30.7267 227.511C30.7171 227.476 30.7145 227.44 30.7188 227.405L35.9067 185.284C35.9633 184.825 36.1511 184.392 36.4477 184.037C36.7443 183.683 37.1371 183.421 37.5787 183.285C38.0203 183.148 38.492 183.142 38.9371 183.266C39.3822 183.391 39.7818 183.642 40.0878 183.989L46.0174 190.704C46.0411 190.731 46.0593 190.763 46.0709 190.796C46.0825 190.83 46.0874 190.866 46.0852 190.902C46.0829 190.938 46.0737 190.972 46.0579 191.005C46.0422 191.037 46.0203 191.066 45.9935 191.089C45.9666 191.113 45.9354 191.131 45.9015 191.143C45.8676 191.154 45.8318 191.159 45.7961 191.157C45.7604 191.155 45.7254 191.145 45.6933 191.13C45.6611 191.114 45.6323 191.092 45.6087 191.065L39.679 184.349C39.4425 184.082 39.1337 183.888 38.7897 183.791C38.4456 183.695 38.081 183.699 37.7397 183.805C37.3984 183.911 37.0949 184.113 36.8657 184.387C36.6365 184.661 36.4913 184.996 36.4476 185.35L31.2598 227.471C31.2517 227.537 31.2198 227.598 31.17 227.642C31.1203 227.686 31.0562 227.711 30.9897 227.711Z" fill="#494949"/>
<path d="M52.0983 194.436C54.1672 190.696 51.733 185.39 46.6614 182.585C41.5897 179.779 35.8012 180.537 33.7324 184.277C31.6635 188.017 34.0977 193.324 39.1693 196.129C44.2409 198.934 50.0294 198.177 52.0983 194.436Z" fill="#0CBC8B"/>
<path opacity="0.2" d="M52.3251 219.225C55.6765 216.572 55.4773 210.738 51.8802 206.194C48.2831 201.649 42.6502 200.116 39.2988 202.768C35.9473 205.421 36.1465 211.256 39.7436 215.8C43.3407 220.345 48.9736 221.878 52.3251 219.225Z" fill="white"/>
<path opacity="0.5" d="M25.7923 202.54C26.7799 196.829 24.1662 191.609 19.9544 190.881C15.7427 190.152 11.5277 194.192 10.5402 199.903C9.55256 205.614 12.1663 210.834 16.378 211.562C20.5898 212.29 24.8047 208.251 25.7923 202.54Z" fill="white"/>
<path opacity="0.5" d="M52.0983 194.436C54.1672 190.696 51.733 185.39 46.6614 182.585C41.5897 179.779 35.8012 180.537 33.7324 184.277C31.6635 188.017 34.0977 193.324 39.1693 196.129C44.2409 198.934 50.0294 198.177 52.0983 194.436Z" fill="white"/>
<path d="M37.6246 263.45H24.3536L22.1543 220.99H39.8236L37.6246 263.45Z" fill="#292A2E"/>
<path opacity="0.3" d="M37.6246 263.45H24.3536L22.1543 220.99H39.8236L37.6246 263.45Z" fill="white"/>
<path d="M52.3262 219.362C52.3056 219.362 52.2853 219.357 52.2668 219.348C52.2483 219.339 52.2321 219.326 52.2193 219.31L39.1925 202.853C39.1814 202.839 39.1732 202.823 39.1683 202.806C39.1634 202.789 39.1619 202.771 39.164 202.753C39.1661 202.735 39.1716 202.718 39.1803 202.702C39.189 202.687 39.2007 202.673 39.2147 202.662C39.2288 202.651 39.2449 202.642 39.2621 202.637C39.2793 202.633 39.2973 202.631 39.3151 202.633C39.3329 202.635 39.3501 202.641 39.3657 202.649C39.3813 202.658 39.3951 202.67 39.4062 202.684L52.433 219.141C52.449 219.161 52.4589 219.185 52.4617 219.21C52.4646 219.236 52.4602 219.262 52.449 219.285C52.4378 219.308 52.4204 219.327 52.3987 219.341C52.3769 219.355 52.3518 219.362 52.3262 219.362Z" fill="white"/>
<path d="M51.2315 195.755C51.2025 195.755 51.1743 195.745 51.1511 195.728L34.4817 183.556C34.4525 183.535 34.433 183.503 34.4274 183.467C34.4218 183.432 34.4307 183.395 34.452 183.366C34.4733 183.337 34.5054 183.317 34.5411 183.312C34.5768 183.306 34.6133 183.315 34.6425 183.336L51.3119 195.508C51.3348 195.525 51.3517 195.549 51.3602 195.576C51.3688 195.604 51.3685 195.633 51.3594 195.66C51.3504 195.687 51.333 195.711 51.3098 195.728C51.2866 195.744 51.2588 195.753 51.2302 195.753L51.2315 195.755Z" fill="white"/>
<path d="M15.7008 211.384C15.6889 211.384 15.6771 211.383 15.6656 211.38C15.631 211.37 15.6015 211.347 15.5836 211.316C15.5657 211.285 15.5608 211.248 15.57 211.213L20.8763 191.331C20.8807 191.314 20.8885 191.297 20.8994 191.283C20.9102 191.268 20.9238 191.256 20.9393 191.247C20.9549 191.238 20.9722 191.232 20.9901 191.229C21.008 191.227 21.0262 191.228 21.0437 191.233C21.0612 191.237 21.0776 191.245 21.0919 191.256C21.1062 191.268 21.1182 191.281 21.1271 191.297C21.136 191.313 21.1417 191.33 21.1439 191.348C21.146 191.366 21.1446 191.384 21.1396 191.402L15.8332 211.283C15.8254 211.312 15.8082 211.338 15.7843 211.356C15.7603 211.375 15.7309 211.384 15.7008 211.384Z" fill="white"/>
<path d="M202.861 15.5486H46.2432C41.7278 15.5486 38.0674 19.209 38.0674 23.7244V196.5C38.0674 201.015 41.7278 204.676 46.2432 204.676H202.861C207.377 204.676 211.037 201.015 211.037 196.5V23.7244C211.037 19.209 207.377 15.5486 202.861 15.5486Z" fill="white"/>
<path d="M202.707 204.717H46.088C43.8482 204.715 41.7008 203.824 40.117 202.24C38.5332 200.656 37.6422 198.509 37.6396 196.269V23.4933C37.6422 21.2534 38.5332 19.1061 40.117 17.5223C41.7008 15.9384 43.8482 15.0475 46.088 15.0449H202.707C204.947 15.0474 207.095 15.9383 208.678 17.5222C210.262 19.106 211.153 21.2534 211.156 23.4933V196.269C211.153 198.509 210.262 200.656 208.678 202.24C207.095 203.824 204.947 204.715 202.707 204.717ZM46.088 15.59C43.9927 15.5924 41.9839 16.4259 40.5022 17.9075C39.0206 19.3891 38.1872 21.3979 38.1847 23.4933V196.269C38.1871 198.364 39.0205 200.373 40.5022 201.855C41.9838 203.336 43.9926 204.17 46.088 204.172H202.707C204.803 204.17 206.812 203.336 208.293 201.855C209.775 200.373 210.608 198.364 210.611 196.269V23.4933C210.608 21.3979 209.775 19.3891 208.293 17.9075C206.811 16.4259 204.803 15.5924 202.707 15.59H46.088Z" fill="#292A2E"/>
<path d="M210.882 23.4922V29.8116H37.9131V23.4922C37.9131 21.3239 38.7745 19.2443 40.3077 17.711C41.841 16.1778 43.9205 15.3164 46.0889 15.3164H202.706C204.874 15.3164 206.954 16.1778 208.487 17.711C210.021 19.2443 210.882 21.3239 210.882 23.4922Z" fill="#292A2E"/>
<path opacity="0.1" d="M66.7532 80.0017C77.7925 80.0017 86.7417 71.0525 86.7417 60.0132C86.7417 48.9738 77.7925 40.0247 66.7532 40.0247C55.7138 40.0247 46.7646 48.9738 46.7646 60.0132C46.7646 71.0525 55.7138 80.0017 66.7532 80.0017Z" fill="#F1A21D"/>
<path opacity="0.2" d="M66.7542 59.1531C70.5885 59.1531 73.6968 56.0448 73.6968 52.2105C73.6968 48.3761 70.5885 45.2678 66.7542 45.2678C62.9198 45.2678 59.8115 48.3761 59.8115 52.2105C59.8115 56.0448 62.9198 59.1531 66.7542 59.1531Z" fill="#F1A21D"/>
<path opacity="0.2" d="M81.7809 73.1941C79.9049 75.3331 77.5938 77.0469 75.0022 78.2209C72.4106 79.3949 69.5982 80.0021 66.7531 80.0019C63.908 80.0016 61.0957 79.3939 58.5043 78.2194C55.9129 77.0449 53.6022 75.3307 51.7266 73.1913C52.6874 69.9513 54.6697 67.1087 57.378 65.0872C60.0862 63.0657 63.3753 61.9737 66.7547 61.974C70.1342 61.9743 73.4231 63.0669 76.131 65.0889C78.8388 67.1108 80.8206 69.9539 81.7809 73.1941Z" fill="#F1A21D"/>
<path opacity="0.2" d="M76.1944 93.6378H49.1014C48.1237 93.6378 47.3311 94.4304 47.3311 95.4082C47.3311 96.3859 48.1237 97.1785 49.1014 97.1785H76.1944C77.1722 97.1785 77.9648 96.3859 77.9648 95.4082C77.9648 94.4304 77.1722 93.6378 76.1944 93.6378Z" fill="#F1A21D"/>
<path opacity="0.1" d="M140.571 41.3673H97.9857C96.3955 41.3673 95.1064 42.6564 95.1064 44.2466V50.2185C95.1064 51.8086 96.3955 53.0977 97.9857 53.0977H140.571C142.161 53.0977 143.45 51.8086 143.45 50.2185V44.2466C143.45 42.6564 142.161 41.3673 140.571 41.3673Z" fill="#F1A21D"/>
<path opacity="0.2" d="M160.299 59.5828H96.4691C95.7165 59.5828 95.1064 60.1928 95.1064 60.9454C95.1064 61.698 95.7165 62.308 96.4691 62.308H160.299C161.052 62.308 161.662 61.698 161.662 60.9454C161.662 60.1928 161.052 59.5828 160.299 59.5828Z" fill="#F1A21D"/>
<path opacity="0.2" d="M160.299 67.7587H96.4691C95.7165 67.7587 95.1064 68.3687 95.1064 69.1213C95.1064 69.8739 95.7165 70.4839 96.4691 70.4839H160.299C161.052 70.4839 161.662 69.8739 161.662 69.1213C161.662 68.3687 161.052 67.7587 160.299 67.7587Z" fill="#F1A21D"/>
<path opacity="0.2" d="M149.398 75.9344H96.4691C95.7165 75.9344 95.1064 76.5445 95.1064 77.297C95.1064 78.0496 95.7165 78.6597 96.4691 78.6597H149.398C150.151 78.6597 150.761 78.0496 150.761 77.297C150.761 76.5445 150.151 75.9344 149.398 75.9344Z" fill="#F1A21D"/>
<path opacity="0.1" d="M116.43 102.286H49.8904C48.4769 102.286 47.3311 103.432 47.3311 104.845V111.168C47.3311 112.582 48.4769 113.727 49.8904 113.727H116.43C117.843 113.727 118.989 112.582 118.989 111.168V104.845C118.989 103.432 117.843 102.286 116.43 102.286Z" fill="#F1A21D"/>
<path opacity="0.2" d="M157.777 93.6378H130.684C129.707 93.6378 128.914 94.4304 128.914 95.4082C128.914 96.3859 129.707 97.1785 130.684 97.1785H157.777C158.755 97.1785 159.548 96.3859 159.548 95.4082C159.548 94.4304 158.755 93.6378 157.777 93.6378Z" fill="#F1A21D"/>
<path opacity="0.1" d="M198.013 102.286H131.473C130.06 102.286 128.914 103.432 128.914 104.845V111.168C128.914 112.582 130.06 113.727 131.473 113.727H198.013C199.426 113.727 200.572 112.582 200.572 111.168V104.845C200.572 103.432 199.426 102.286 198.013 102.286Z" fill="#F1A21D"/>
<path opacity="0.2" d="M76.1944 123.187H49.1014C48.1237 123.187 47.3311 123.979 47.3311 124.957C47.3311 125.935 48.1237 126.728 49.1014 126.728H76.1944C77.1722 126.728 77.9648 125.935 77.9648 124.957C77.9648 123.979 77.1722 123.187 76.1944 123.187Z" fill="#F1A21D"/>
<path opacity="0.1" d="M116.43 131.835H49.8904C48.4769 131.835 47.3311 132.981 47.3311 134.394V140.717C47.3311 142.131 48.4769 143.277 49.8904 143.277H116.43C117.843 143.277 118.989 142.131 118.989 140.717V134.394C118.989 132.981 117.843 131.835 116.43 131.835Z" fill="#F1A21D"/>
<path opacity="0.2" d="M157.777 123.187H130.684C129.707 123.187 128.914 123.979 128.914 124.957C128.914 125.935 129.707 126.728 130.684 126.728H157.777C158.755 126.728 159.548 125.935 159.548 124.957C159.548 123.979 158.755 123.187 157.777 123.187Z" fill="#F1A21D"/>
<path opacity="0.1" d="M198.013 131.835H131.473C130.06 131.835 128.914 132.981 128.914 134.394V140.717C128.914 142.131 130.06 143.277 131.473 143.277H198.013C199.426 143.277 200.572 142.131 200.572 140.717V134.394C200.572 132.981 199.426 131.835 198.013 131.835Z" fill="#F1A21D"/>
<path opacity="0.2" d="M76.1944 152.736H49.1014C48.1237 152.736 47.3311 153.529 47.3311 154.506C47.3311 155.484 48.1237 156.277 49.1014 156.277H76.1944C77.1722 156.277 77.9648 155.484 77.9648 154.506C77.9648 153.529 77.1722 152.736 76.1944 152.736Z" fill="#F1A21D"/>
<path opacity="0.1" d="M116.43 161.384H49.8904C48.4769 161.384 47.3311 162.53 47.3311 163.943V170.266C47.3311 171.68 48.4769 172.826 49.8904 172.826H116.43C117.843 172.826 118.989 171.68 118.989 170.266V163.943C118.989 162.53 117.843 161.384 116.43 161.384Z" fill="#F1A21D"/>
<path opacity="0.2" d="M157.777 152.736H130.684C129.707 152.736 128.914 153.529 128.914 154.506C128.914 155.484 129.707 156.277 130.684 156.277H157.777C158.755 156.277 159.548 155.484 159.548 154.506C159.548 153.529 158.755 152.736 157.777 152.736Z" fill="#F1A21D"/>
<path opacity="0.1" d="M198.013 161.384H131.473C130.06 161.384 128.914 162.53 128.914 163.943V170.266C128.914 171.68 130.06 172.826 131.473 172.826H198.013C199.426 172.826 200.572 171.68 200.572 170.266V163.943C200.572 162.53 199.426 161.384 198.013 161.384Z" fill="#F1A21D"/>
<path opacity="0.2" d="M145.193 181.74H103.602C101.924 181.74 100.563 183.101 100.563 184.779V190.389C100.563 192.067 101.924 193.427 103.602 193.427H145.193C146.872 193.427 148.232 192.067 148.232 190.389V184.779C148.232 183.101 146.872 181.74 145.193 181.74Z" fill="#F1A21D"/>
<path d="M131.653 49.4105L136.057 54.6119L135.784 53.7189C135.702 53.4288 135.733 53.1184 135.871 52.8502C136.008 52.5821 136.243 52.3763 136.527 52.2745C136.675 52.227 136.831 52.2102 136.986 52.2252C137.141 52.2401 137.292 52.2865 137.428 52.3614C137.564 52.4364 137.684 52.5384 137.78 52.6611C137.876 52.7839 137.946 52.9248 137.985 53.0754L139.998 60.6569C140.253 61.6139 140.123 62.6323 139.637 63.495C139.15 64.3576 138.346 64.9961 137.396 65.2743C136.293 65.5972 135.118 65.5833 134.023 65.2344C132.927 64.8854 131.961 64.2173 131.248 63.3156L128.024 59.2247C127.852 59.0155 127.758 58.7533 127.758 58.4826C127.757 58.212 127.85 57.9494 128.021 57.7395C128.179 57.5529 128.393 57.4218 128.631 57.3654C128.869 57.3091 129.119 57.3303 129.344 57.426C129.349 57.4081 129.358 57.3917 129.371 57.3786C129.385 57.3671 129.401 57.359 129.418 57.3551C129.435 57.3512 129.452 57.3516 129.469 57.3563L128.872 56.6014C128.689 56.3801 128.592 56.1001 128.6 55.8131C128.607 55.5261 128.718 55.2514 128.912 55.0398C129.111 54.8367 129.378 54.7147 129.662 54.6975C129.946 54.6803 130.226 54.7691 130.447 54.9466C130.449 54.9346 130.453 54.9229 130.458 54.9123L130.213 54.6027C130.053 54.3906 129.965 54.1327 129.963 53.867C129.961 53.6013 130.045 53.3421 130.201 53.1275C130.393 52.8965 130.667 52.7498 130.966 52.7187C131.264 52.6876 131.563 52.7745 131.798 52.961L131.813 52.9454L129.963 50.76C129.868 50.648 129.797 50.5177 129.754 50.3773C129.711 50.2368 129.697 50.0891 129.713 49.9431C129.729 49.7972 129.775 49.656 129.847 49.5282C129.92 49.4005 130.018 49.2888 130.135 49.2001C130.367 49.0362 130.653 48.9667 130.935 49.0057C131.217 49.0448 131.473 49.1895 131.653 49.4105Z" fill="#E98862"/>
<path opacity="0.2" d="M131.754 53.0836C131.758 53.0953 131.765 53.1062 131.773 53.1157L133.596 55.2185C133.606 55.2293 133.617 55.2381 133.63 55.2445C133.642 55.2509 133.656 55.2547 133.67 55.2557C133.684 55.2568 133.699 55.255 133.712 55.2506C133.725 55.2462 133.738 55.2391 133.749 55.2299C133.759 55.2206 133.768 55.2093 133.775 55.1967C133.781 55.184 133.785 55.1702 133.786 55.1561C133.787 55.142 133.785 55.1278 133.781 55.1143C133.776 55.1008 133.769 55.0884 133.76 55.0776L131.938 52.9756C131.921 52.958 131.898 52.9467 131.874 52.9435C131.85 52.9404 131.825 52.9455 131.804 52.9581C131.783 52.9707 131.767 52.9901 131.758 53.0131C131.749 53.036 131.749 53.0613 131.756 53.0847L131.754 53.0836Z" fill="#0C0C0C"/>
<path opacity="0.2" d="M130.45 54.9969C130.455 55.0083 130.461 55.0189 130.469 55.0282L131.888 56.6906C131.907 56.7105 131.933 56.7224 131.96 56.7238C131.988 56.7252 132.015 56.716 132.036 56.6982C132.057 56.6803 132.07 56.6551 132.073 56.6278C132.076 56.6004 132.068 56.573 132.052 56.5511L130.632 54.8887C130.616 54.8692 130.593 54.8562 130.568 54.852C130.543 54.8479 130.517 54.8527 130.495 54.8658C130.473 54.8789 130.456 54.8994 130.448 54.9235C130.44 54.9477 130.441 54.974 130.45 54.9977L130.45 54.9969Z" fill="#0C0C0C"/>
<path opacity="0.2" d="M129.343 57.4982C129.348 57.5106 129.354 57.5219 129.363 57.5318L130.053 58.3014C130.063 58.3119 130.074 58.3205 130.087 58.3266C130.1 58.3327 130.113 58.3363 130.127 58.337C130.142 58.3378 130.156 58.3358 130.169 58.3312C130.182 58.3265 130.195 58.3192 130.205 58.3098C130.216 58.3004 130.224 58.289 130.23 58.2763C130.236 58.2636 130.24 58.2498 130.241 58.2357C130.242 58.2216 130.24 58.2075 130.235 58.1941C130.23 58.1808 130.223 58.1686 130.214 58.158L129.525 57.3881C129.508 57.3698 129.485 57.3579 129.461 57.3544C129.436 57.3508 129.411 57.3559 129.39 57.3687C129.369 57.3816 129.352 57.4014 129.344 57.4248C129.336 57.4482 129.336 57.4738 129.344 57.4972L129.343 57.4982Z" fill="#0C0C0C"/>
<path d="M184.999 101.58L146.549 98.8895C145.162 98.7925 143.831 98.3043 142.709 97.4817C141.588 96.659 140.723 95.5355 140.215 94.2413L128.058 63.3157L141.753 57.9316L152.21 84.5333L186.025 86.8999L184.999 101.58Z" fill="#F1A21D"/>
<path d="M207.324 251.059C207.324 251.059 206.093 257.436 200.122 257.793C194.15 258.149 195.445 262.905 195.445 262.905H218.266V251.503L207.324 251.059Z" fill="#F1A21D"/>
<path d="M214.363 134.708C214.363 134.708 214.291 132.791 214.306 137.14C214.363 153.364 214.644 171.895 215.332 182.738C216.438 200.17 219.273 255.129 219.273 255.129L204.277 255.003L189.742 134.049L214.363 134.708Z" fill="#262626"/>
<path d="M180.628 251.059C180.628 251.059 179.397 257.436 173.425 257.793C167.453 258.149 168.748 262.905 168.748 262.905H191.57V251.503L180.628 251.059Z" fill="#F1A21D"/>
<path d="M173.366 135.968C173.366 135.968 172.038 191.416 172.232 194.126L177.809 254.709L192.557 254.981L191.12 191.933C191.12 191.933 192.134 174.542 196.336 158.393C198.486 150.104 199.78 141.617 200.197 133.065L173.366 135.968Z" fill="#262626"/>
<path d="M214.526 134.707L214.575 134.71C214.575 134.71 214.54 133.764 214.526 134.707Z" fill="#333333"/>
<path d="M171.254 105.191C171.564 108.825 173.068 131.493 173.365 135.968H214.345C214.577 131.932 215.616 114.282 216.494 106.389C217.332 98.8565 218.976 95.0852 217.771 92.8587C215.802 89.2193 210.421 87.1163 206.751 86.6194C204.511 86.3161 201.141 86.0986 201.141 86.0986C201.141 86.0986 200.856 91.871 194.052 92.1923C184.79 92.6284 185.408 86.0986 185.362 86.0986C183.862 86.0986 175.125 86.8042 173.193 88.2914C169.814 90.8924 170.598 97.4916 171.254 105.191Z" fill="#F1A21D"/>
<path d="M170.688 100.639C170.654 100.639 170.62 100.625 170.595 100.601C170.569 100.578 170.554 100.545 170.552 100.51L170.223 94.7405C170.221 94.7044 170.233 94.669 170.257 94.642C170.281 94.615 170.315 94.5987 170.351 94.5966C170.387 94.5949 170.422 94.6074 170.449 94.6314C170.476 94.6554 170.492 94.689 170.495 94.7249L170.825 100.494C170.828 100.53 170.815 100.566 170.791 100.593C170.767 100.62 170.733 100.636 170.697 100.638L170.688 100.639Z" fill="#0C0C0C"/>
<path d="M223.207 135.731C224.412 135.731 225.6 135.439 226.668 134.881C227.737 134.324 228.655 133.516 229.344 132.527C230.033 131.538 230.473 130.397 230.627 129.202C230.78 128.006 230.643 126.791 230.226 125.661C229.803 124.512 219.877 98.229 217.987 93.3593L203.996 99.0278C205.059 101.766 208.908 112.145 212.001 120.506L206.863 119.948L205.246 134.824L222.397 135.687C222.666 135.716 222.936 135.731 223.207 135.731Z" fill="#F1A21D"/>
<path d="M180.481 85.601C180.528 85.595 181.784 90.3255 191.595 89.5894C198.386 89.0806 200.043 84.4578 200.198 84.4578C199.465 84.3021 198.276 84.1405 197.951 83.9672C196.882 83.3927 196.103 82.6931 195.711 81.1921C195.404 80.018 195.247 75.4987 195.247 73.2313L184.796 75.5796C184.942 78.1376 185.962 84.0669 182.388 85.1165C181.794 85.2898 181.154 85.4495 180.481 85.601Z" fill="#E98862"/>
<path d="M185.159 80.6079C189.279 80.9331 194.571 79.1935 195.576 73.6969L196.483 68.7369C197.489 63.2403 195.417 58.2563 190.242 57.3099C185.067 56.3634 180.384 60.1117 179.379 65.6083L178.977 67.8041C178.591 69.9134 177.808 80.028 185.159 80.6079Z" fill="#E98862"/>
<path d="M181.338 75.5615C182.078 71.8459 182.417 69.3667 182.378 66.7513C181.336 64.9253 181.61 62.8269 181.847 61.921C181.129 62.3767 180.286 62.593 179.438 62.5388C179.438 62.5388 181.16 55.6253 187.014 53.765C188.091 53.3459 190.84 52.8167 194.49 53.3173C197.594 53.743 205.247 56.0644 206.34 64.6798V64.6847C206.376 64.9703 207.111 72.9082 208.575 76.7168C210.544 81.8367 213.309 83.4275 213.239 89.3348C213.148 96.9331 199.179 97.9445 190.755 97.3762C182.331 96.808 177.626 94.0372 177.565 88.5614C177.5 82.4259 179.859 82.9958 181.338 75.5615Z" fill="#0A0A0A"/>
<path d="M215.222 106.541L214.215 135.965L214.487 135.974L215.494 106.551L215.222 106.541Z" fill="#0C0C0C"/>
<path d="M17.0862 263.451H258.304C258.331 263.452 258.358 263.447 258.383 263.437C258.408 263.428 258.431 263.413 258.451 263.394C258.47 263.376 258.486 263.353 258.496 263.328C258.507 263.304 258.512 263.277 258.512 263.25C258.512 263.223 258.507 263.196 258.496 263.171C258.486 263.146 258.47 263.124 258.451 263.105C258.431 263.087 258.408 263.072 258.383 263.062C258.358 263.053 258.331 263.048 258.304 263.049H17.0862C17.0592 263.048 17.0323 263.053 17.0071 263.062C16.9819 263.072 16.9588 263.087 16.9394 263.105C16.92 263.124 16.9045 263.146 16.8939 263.171C16.8834 263.196 16.8779 263.223 16.8779 263.25C16.8779 263.277 16.8834 263.304 16.8939 263.328C16.9045 263.353 16.92 263.376 16.9394 263.394C16.9588 263.413 16.9819 263.428 17.0071 263.437C17.0323 263.447 17.0592 263.452 17.0862 263.451Z" fill="#292A2E"/>
<path d="M197.428 153.84C197.428 153.84 196.807 165.613 196.693 168.377C196.426 174.769 196.334 181.387 196.334 188.891L193.97 169.22C193.97 169.22 195.698 163.055 197.428 153.84Z" fill="#0A0A0A"/>
</g>
<defs>
<clipPath id="clip0_93_1370">
<rect width="272.795" height="262.901" fill="white" transform="translate(0.602539 0.549561)"/>
</clipPath>
</defs>
</svg>
