<svg width="794" height="482" viewBox="0 0 794 482" fill="none" xmlns="http://www.w3.org/2000/svg">
<g clip-path="url(#clip0_93_942)">
<path d="M57.0783 481.623C45.9145 481.633 35.0198 478.195 25.8823 471.78C16.7449 465.365 9.81023 456.284 6.02559 445.779C-10.6063 399.441 2.7374 273.853 103.164 210.855C209.374 144.233 255.875 11.9744 357.18 1.10247C515.888 -15.9217 560.244 169.159 631.454 212.228C692.978 249.439 782.077 305.239 793.726 421.862C794.44 428.96 793.748 436.13 791.691 442.961C789.634 449.792 786.252 456.151 781.738 461.674C777.225 467.198 771.667 471.778 765.384 475.154C759.1 478.529 752.213 480.634 745.116 481.347C743.32 481.528 741.519 481.619 739.712 481.62L57.0783 481.623Z" fill="#FBFDF3"/>
<path d="M419.059 167.695C419.514 166.953 418.916 166.01 416.502 165.042C411.51 163.039 404.159 165.428 404.159 165.428L402.57 169.609L402.512 178.442C402.512 178.442 415.235 181.977 418.161 180.13C420.1 178.906 420.859 169.353 420.859 169.353C420.922 168.682 420.211 168.138 419.059 167.695Z" fill="#E98862"/>
<path opacity="0.07" d="M419.059 167.695C419.514 166.953 418.916 166.01 416.502 165.042C411.51 163.039 404.159 165.428 404.159 165.428L402.57 169.609L402.512 178.442C402.512 178.442 415.235 181.977 418.161 180.13C420.1 178.906 420.859 169.353 420.859 169.353C420.922 168.682 420.211 168.138 419.059 167.695Z" fill="black"/>
<path d="M416.985 91.1758H413.969V218.397H416.985V91.1758Z" fill="#0CBC8B"/>
<path d="M416.985 90.9163C416.985 90.9163 449.887 77.8134 472.706 100.637C495.525 123.462 523.836 111.338 523.836 111.338C523.836 111.338 503.13 137.729 464.254 133.765C425.378 129.801 416.985 145.987 416.985 145.987" fill="#0CBC8B"/>
<path d="M174.053 481.623L414.917 210.879L699.315 481.623H174.053Z" fill="#DEE8F5"/>
<path d="M547.749 337.336L538.395 363.197L497.763 331.337L466.326 364.094L426.669 319.728L394.26 360.125L361.201 336.418L314.739 383.179C314.739 383.179 307.879 359.395 301.528 338.338L414.914 210.879L547.749 337.336Z" fill="white"/>
<path d="M197.775 217.595L186.976 215.618C186.976 215.618 178.645 227.122 185.044 239.615C187.165 243.755 191.883 241.431 191.997 239.825C192.373 234.518 192.175 229.311 194.555 225.408C195.139 227.407 196.1 230.091 196.995 229.851C199.347 229.22 197.775 217.595 197.775 217.595Z" fill="#E98862"/>
<path d="M333.765 375.085L314.297 375.022C314.297 375.022 314.362 354.914 314.362 353.134H333.829C333.829 354.92 333.765 375.085 333.765 375.085Z" fill="#E98862"/>
<path d="M357.408 383.009C357.931 383.007 358.449 382.897 358.928 382.685C359.407 382.473 359.837 382.165 360.191 381.78C360.546 381.395 360.817 380.941 360.989 380.446C361.16 379.951 361.227 379.426 361.186 378.904C361.13 378.18 360.868 377.488 360.431 376.908C359.995 376.328 359.402 375.885 358.722 375.631L336.063 368.041C335.624 367.895 335.159 367.846 334.699 367.897C334.239 367.948 333.796 368.098 333.4 368.337C330.285 370.498 326.559 371.603 322.769 371.489C319.818 371.28 316.984 370.244 314.593 368.502C314.382 368.329 314.127 368.22 313.857 368.187C313.588 368.154 313.314 368.198 313.068 368.315C312.823 368.432 312.615 368.616 312.47 368.846C312.325 369.076 312.248 369.343 312.249 369.615V380.697C312.249 381.024 312.314 381.348 312.439 381.65C312.564 381.951 312.748 382.226 312.98 382.456C313.211 382.687 313.486 382.87 313.789 382.994C314.091 383.118 314.415 383.181 314.742 383.18L357.408 383.009Z" fill="#C1D8ED"/>
<path d="M236.878 350.82C235.209 351.458 218.92 355.574 218.92 355.574" stroke="#E98862" stroke-width="19.4721" stroke-miterlimit="10"/>
<path d="M224.938 473.903L205.471 473.839C205.471 473.839 205.536 453.732 205.536 451.957H225.003C225.003 453.738 224.938 473.903 224.938 473.903Z" fill="#E98862"/>
<path d="M347.506 232.61C329.318 225.965 309.232 218.576 290.048 211.26L217.646 194.106C212.084 199.669 216.436 305.386 217.138 333.145L200.593 461.303L234.494 466.514L257.553 337.256C257.723 336.188 257.802 335.107 257.789 334.025L258.844 278.903C259.083 270.019 259.291 258.308 259.586 247.106C279.916 252.187 301.995 257.288 322.809 262.035L308.279 360.697L342.213 365.697L359.051 251.368C359.634 247.383 358.797 243.32 356.686 239.891C354.576 236.461 351.326 233.884 347.506 232.61Z" fill="#262626"/>
<path d="M343.869 156.54L302.107 111.176L302.075 111.207C299.486 107.624 295.184 104.987 288.462 103.675C287.889 103.56 286.966 103.397 285.774 103.204C284.774 108.211 253.556 103.482 253.671 98.2356C244.853 96.9143 237.212 98.5268 232.39 102.085C230.069 103.777 228.169 105.982 226.839 108.528L226.723 108.458L196.906 158.409C196.409 159.244 196.035 160.147 195.794 161.089L181.61 216.619L201.195 221.626L215.013 167.516L226.879 147.638C227.422 152.037 227.422 156.487 226.879 160.886C223.972 180.149 213.963 187.462 213.113 197.443C211.778 213.127 287.8 220.851 292.972 212.602C298.304 204.104 291.113 197.279 295.96 167.572C297.317 159.227 300.235 150.113 302.469 141.418L331.677 173.143C333.398 175.012 335.76 176.165 338.292 176.371L404.377 181.749L406.017 161.598L343.869 156.54Z" fill="#F1A21D"/>
<path d="M285.776 103.207C284.777 108.214 280.917 115.216 272.372 114.499C260.985 113.54 253.558 103.482 253.674 98.2385H253.702C264.802 99.9187 279.32 102.128 285.776 103.207Z" fill="#E98862"/>
<path d="M248.581 481.828C249.105 481.825 249.622 481.715 250.101 481.503C250.58 481.292 251.01 480.984 251.365 480.599C251.72 480.213 251.991 479.759 252.162 479.264C252.333 478.77 252.401 478.245 252.36 477.723C252.304 476.999 252.042 476.306 251.605 475.726C251.169 475.146 250.575 474.703 249.895 474.45L227.237 466.859C226.798 466.714 226.332 466.665 225.873 466.716C225.413 466.767 224.97 466.917 224.574 467.155C221.459 469.317 217.733 470.422 213.943 470.308C210.991 470.098 208.158 469.062 205.765 467.32C205.555 467.147 205.3 467.038 205.031 467.005C204.761 466.972 204.487 467.016 204.241 467.133C203.996 467.25 203.788 467.434 203.643 467.664C203.498 467.894 203.422 468.161 203.423 468.433V479.515C203.423 479.842 203.487 480.166 203.613 480.468C203.738 480.77 203.922 481.044 204.154 481.274C204.385 481.505 204.66 481.688 204.962 481.812C205.265 481.936 205.589 482 205.916 481.998L248.581 481.828Z" fill="#C1D8ED"/>
<path d="M418.158 180.132C417.897 180.287 417.613 180.4 417.318 180.467C415.77 180.568 412.104 179.133 411.642 177.997C410.89 176.142 412.364 170.047 413.55 167.923C414.663 165.937 418.619 167.386 419.142 167.56C419.158 167.568 419.174 167.575 419.191 167.58C420.262 168.044 420.926 168.619 420.86 169.356C420.857 169.356 420.102 178.905 418.158 180.132Z" fill="#E98862"/>
<path d="M160.752 481.623H135.139C130.689 475.765 122.882 463.95 127.927 458.905C130.221 456.615 132.747 458.794 135.092 462.7C134.286 455.046 135.092 447.731 140.417 445.595C145.267 443.655 147.434 449.517 148.271 457.384C150.657 452.91 153.799 449.761 157.896 450.01C163.757 450.36 162.346 458.178 158.916 466.835C161.518 464.857 164.237 463.883 166.888 464.751C172.428 466.569 167.25 474.356 160.752 481.623Z" fill="#8DDBE0"/>
<path d="M687.555 481.623H652.043C645.871 473.502 635.048 457.12 642.043 450.123C645.225 446.948 648.718 449.969 651.977 455.385C650.86 444.773 651.977 434.631 659.361 431.669C666.085 428.98 669.089 437.108 670.251 448.014C673.557 441.811 677.914 437.443 683.594 437.791C691.721 438.276 689.758 449.116 685.004 461.118C688.612 458.377 692.382 457.025 696.056 458.229C703.749 460.747 696.563 471.547 687.555 481.623Z" fill="#8DDBE0"/>
<path d="M255.141 101.162C255.141 101.162 263.013 99.1991 266.16 79.8633L281.197 80.7646C281.197 80.7646 275.368 97.3539 281.302 104.552L255.141 101.162Z" fill="#E98862"/>
<g opacity="0.15">
<path d="M279.237 100.273L269.562 88.1714L278.965 90.406C278.441 93.6832 278.533 97.0295 279.237 100.273Z" fill="black"/>
</g>
<path d="M259.827 70.4945C259.396 76.4909 261.182 82.7137 265.792 85.8292C270.775 89.3953 276.554 91.6873 282.625 92.5053C298.682 95.1202 304.446 58.5581 298.699 49.7521C292.953 40.946 269.934 39.9075 264.383 50.8731C261.517 56.5441 260.238 64.7873 259.827 70.4945Z" fill="#E98862"/>
<path d="M304.869 65.1851C304.869 65.1851 308.095 38.9831 278.613 38.2951C273.799 38.3722 269.133 39.974 265.287 42.8701C264.738 40.3323 263.441 38.0173 261.565 36.2233C259.688 34.4294 257.317 33.2389 254.758 32.8053C252.198 32.3717 249.568 32.7149 247.205 33.7906C244.843 34.8664 242.856 36.6253 241.503 38.8407C240.149 41.0561 239.489 43.6263 239.61 46.22C239.73 48.8137 240.624 51.3118 242.177 53.3924C243.73 55.473 245.87 57.0406 248.322 57.893C250.774 58.7455 253.426 58.8438 255.934 58.1751C255.869 58.546 255.805 58.9169 255.753 59.2999C253.557 75.4765 264.704 86.6109 264.704 86.6109C264.704 86.6109 268.884 84.8194 273.944 59.0634C279.879 61.0876 293.572 65.2778 304.869 65.1851Z" fill="#0F1011"/>
<path d="M283.759 71.6915C284.501 71.6915 285.103 71.09 285.103 70.348C285.103 69.6059 284.501 69.0044 283.759 69.0044C283.017 69.0044 282.416 69.6059 282.416 70.348C282.416 71.09 283.017 71.6915 283.759 71.6915Z" fill="#0F1011"/>
<path d="M294.254 73.4005C294.996 73.4005 295.598 72.799 295.598 72.057C295.598 71.3149 294.996 70.7134 294.254 70.7134C293.513 70.7134 292.911 71.3149 292.911 72.057C292.911 72.799 293.513 73.4005 294.254 73.4005Z" fill="#0F1011"/>
<path d="M293.672 68.9097C293.698 68.9204 293.725 68.9293 293.753 68.9366L297.196 69.837C297.277 69.8612 297.362 69.8689 297.446 69.8595C297.531 69.85 297.612 69.8238 297.686 69.7822C297.76 69.7406 297.824 69.6846 297.876 69.6175C297.928 69.5504 297.966 69.4735 297.987 69.3915C298.008 69.3095 298.013 69.224 298.001 69.1401C297.989 69.0563 297.959 68.9757 297.915 68.9034C297.871 68.831 297.813 68.7682 297.744 68.7188C297.675 68.6694 297.597 68.6344 297.515 68.6158L294.072 67.7164C293.917 67.6772 293.754 67.6979 293.614 67.7743C293.474 67.8506 293.368 67.977 293.318 68.1281C293.267 68.2792 293.276 68.4438 293.341 68.5889C293.407 68.734 293.525 68.848 293.672 68.9097Z" fill="#0F1011"/>
<path d="M281.448 67.2593C281.523 67.2899 281.603 67.3056 281.684 67.3057L285.293 67.3317C285.46 67.3328 285.621 67.2673 285.74 67.1497C285.859 67.032 285.927 66.8718 285.928 66.7044C285.929 66.5369 285.864 66.3759 285.746 66.2567C285.629 66.1374 285.468 66.0699 285.301 66.0688L281.692 66.0437C281.545 66.0428 281.403 66.0928 281.289 66.1854C281.176 66.278 281.098 66.4072 281.069 66.551C281.04 66.6947 281.062 66.844 281.131 66.9733C281.201 67.1025 281.313 67.2037 281.448 67.2593Z" fill="#0F1011"/>
<path d="M281.819 80.7683C281.819 80.7683 286.506 82.4698 290.172 82.1276C290.172 82.1276 289.359 85.2923 285.473 84.659C281.586 84.0257 281.819 80.7683 281.819 80.7683Z" fill="white"/>
<path d="M276.186 71.8613C275.922 73.3328 275.09 74.6414 273.869 75.5048C272.649 76.3682 271.138 76.7171 269.663 76.4763C268.188 76.2354 266.867 75.4241 265.984 74.2174C265.102 73.0107 264.729 71.5054 264.946 70.0263C265.054 69.2825 265.311 68.568 265.701 67.9255C266.091 67.283 266.606 66.7256 267.216 66.2864C267.826 65.8472 268.518 65.5353 269.251 65.3692C269.984 65.2031 270.742 65.1862 271.482 65.3196C275.451 66.168 276.691 68.7513 276.186 71.8613Z" fill="#E98862"/>
<g opacity="0.15">
<path d="M287.751 79.0178C287.643 78.9913 287.548 78.9269 287.483 78.8362C287.419 78.7455 287.389 78.6347 287.4 78.5239C287.41 78.4131 287.46 78.3098 287.54 78.2328C287.621 78.1558 287.726 78.1102 287.837 78.1045L290.69 77.9478L289.861 73.357C289.85 73.2971 289.851 73.2356 289.864 73.1761C289.877 73.1166 289.901 73.0602 289.936 73.0101C289.97 72.96 290.014 72.9173 290.066 72.8843C290.117 72.8513 290.174 72.8287 290.234 72.8178C290.294 72.8069 290.355 72.8079 290.415 72.8208C290.474 72.8336 290.531 72.8581 290.581 72.8927C290.631 72.9274 290.673 72.9716 290.706 73.0227C290.739 73.0739 290.762 73.1311 290.773 73.191L291.7 78.2992C291.712 78.3639 291.71 78.4305 291.694 78.4943C291.678 78.5582 291.649 78.618 291.608 78.6697C291.567 78.7213 291.516 78.7637 291.457 78.794C291.399 78.8243 291.335 78.8418 291.269 78.8453L287.892 79.0308C287.844 79.033 287.797 79.0286 287.751 79.0178Z" fill="black"/>
</g>
</g>
<defs>
<clipPath id="clip0_93_942">
<rect width="794" height="482" fill="white"/>
</clipPath>
</defs>
</svg>
