<svg width="220" height="64" viewBox="0 0 220 64" fill="none" xmlns="http://www.w3.org/2000/svg">
<rect width="220" height="64" rx="8" fill="white"/>
<path d="M108.537 48.142V16H113.962V24.0867H118.927C120.497 24.0867 121.708 24.2914 122.561 24.7009C123.414 25.1103 124.011 25.7416 124.352 26.5946C124.693 27.4135 124.864 28.4883 124.864 29.819V41.0278C124.864 42.8703 124.796 44.3034 124.659 45.327C124.523 46.3507 124.13 47.0843 123.482 47.5279C122.834 47.9373 121.725 48.142 120.155 48.142H108.537ZM113.962 43.7916H117.494C118.04 43.7916 118.432 43.7404 118.671 43.6381C118.944 43.5016 119.132 43.2457 119.234 42.8703C119.371 42.495 119.439 41.9149 119.439 41.1302V30.945C119.439 30.3308 119.388 29.8531 119.285 29.5119C119.217 29.1366 119.046 28.8636 118.773 28.693C118.5 28.5224 118.091 28.4371 117.545 28.4371H113.962V43.7916Z" fill="#1F1E23"/>
<path d="M96.5215 48.3979C94.2695 48.3979 92.5634 48.125 91.4033 47.579C90.2773 47.0331 89.5096 46.2995 89.1001 45.3782C88.6907 44.457 88.4859 43.4504 88.4859 42.3585V29.819C88.4859 28.693 88.6907 27.6865 89.1001 26.7993C89.5096 25.8781 90.2944 25.1444 91.4545 24.5985C92.6487 24.0526 94.3889 23.7796 96.675 23.7796C98.7223 23.7796 100.343 24.0526 101.537 24.5985C102.731 25.1103 103.567 25.8098 104.045 26.697C104.557 27.5841 104.813 28.5907 104.813 29.7167V42.1538C104.813 43.348 104.557 44.4228 104.045 45.3782C103.533 46.2995 102.68 47.0331 101.486 47.579C100.292 48.125 98.637 48.3979 96.5215 48.3979ZM96.4703 43.9451C97.528 43.9451 98.2787 43.6892 98.7223 43.1774C99.1658 42.6315 99.3876 41.9661 99.3876 41.1813V30.7403C99.3876 30.0238 99.1658 29.3925 98.7223 28.8466C98.3128 28.2665 97.6133 27.9765 96.6238 27.9765C95.6684 27.9765 94.9689 28.2495 94.5254 28.7954C94.1159 29.3413 93.9112 29.9896 93.9112 30.7403V41.3349C93.9112 42.0514 94.1159 42.6656 94.5254 43.1774C94.9348 43.6892 95.5831 43.9451 96.4703 43.9451Z" fill="#1F1E23"/>
<path d="M75.7165 48.142L75 43.7916H77.6103C78.2586 43.7916 78.7192 43.7063 78.9922 43.5357C79.2651 43.3651 79.4187 43.0239 79.4528 42.5121C79.521 42.0002 79.5552 41.2155 79.5552 40.1577V16.4095H85.0828V41.9491C85.0828 43.5186 84.9633 44.7641 84.7245 45.6853C84.5198 46.5725 84.008 47.2037 83.1891 47.579C82.4043 47.9544 81.1418 48.142 79.4016 48.142H75.7165Z" fill="#1F1E23"/>
<path d="M197.065 47.9245V16.0383H202.49V47.9245H197.065ZM208.683 47.9245L202.951 37.6881H200.238V33.6448H202.951L208.529 23.2549L213.545 25.0975L207.762 35.1291L214.876 47.9245H208.683Z" fill="#F1A21D"/>
<path d="M185.249 48.1804C182.997 48.1804 181.291 47.9074 180.131 47.3615C179.005 46.8155 178.237 46.0819 177.828 45.1607C177.418 44.2394 177.214 43.2328 177.214 42.1409V29.6015C177.214 28.4755 177.418 27.4689 177.828 26.5817C178.237 25.6605 179.022 24.9269 180.182 24.3809C181.376 23.835 183.117 23.562 185.403 23.562C187.45 23.562 189.071 23.835 190.265 24.3809C191.459 24.8927 192.295 25.5922 192.773 26.4794C193.285 27.3665 193.54 28.3731 193.54 29.4991V33.2865L188.115 33.7472V30.5227C188.115 29.8062 187.893 29.1749 187.45 28.629C187.04 28.0489 186.341 27.7589 185.351 27.7589C184.396 27.7589 183.697 28.0319 183.253 28.5778C182.844 29.1238 182.639 29.7721 182.639 30.5227V41.1173C182.639 41.8339 182.844 42.448 183.253 42.9598C183.662 43.4717 184.311 43.7276 185.198 43.7276C186.256 43.7276 187.006 43.4717 187.45 42.9598C187.893 42.4139 188.115 41.7486 188.115 40.9638V38.1488L193.54 37.7393V41.9362C193.54 43.1305 193.285 44.2053 192.773 45.1607C192.261 46.0819 191.408 46.8155 190.214 47.3615C189.019 47.9074 187.365 48.1804 185.249 48.1804Z" fill="#F1A21D"/>
<path d="M161.374 47.9245C160.009 47.9245 159.036 47.7197 158.456 47.3103C157.876 46.8667 157.501 46.1672 157.33 45.2118C157.194 44.2223 157.126 42.9087 157.126 41.2709V29.6015C157.126 28.2707 157.296 27.1959 157.637 26.377C157.979 25.524 158.576 24.8927 159.429 24.4833C160.282 24.0738 161.476 23.8691 163.011 23.8691H173.452V47.9245H168.027V28.2196H164.445C163.864 28.2196 163.438 28.3049 163.165 28.4755C162.892 28.6461 162.721 28.919 162.653 29.2944C162.585 29.6356 162.551 30.1133 162.551 30.7275V40.9126C162.551 41.6974 162.602 42.2774 162.704 42.6528C162.807 43.0281 162.977 43.284 163.216 43.4205C163.489 43.5228 163.864 43.574 164.342 43.574H167.004L166.441 47.9245H161.374Z" fill="#F1A21D"/>
<path d="M141.885 47.9245V23.8691H146.337L146.849 26.377C147.361 25.4216 148.061 24.7051 148.948 24.2274C149.869 23.7497 150.756 23.5108 151.609 23.5108C152.53 23.5108 153.23 23.562 153.708 23.6644C154.185 23.7326 154.578 23.8521 154.885 24.0227L154.629 28.7314C154.254 28.5949 153.759 28.4925 153.145 28.4243C152.565 28.3219 151.899 28.2707 151.149 28.2707C150.227 28.2707 149.408 28.5437 148.692 29.0896C147.975 29.6015 147.515 30.4033 147.31 31.4952V47.9245H141.885Z" fill="#F1A21D"/>
<path d="M130.284 20.5423H124.858V16.1919H141.288V20.5423H135.862V47.9245H130.284V20.5423Z" fill="#F1A21D"/>
<path d="M63 32C63 48.0163 50.0163 61 34 61C17.9837 61 5 48.0163 5 32C5 15.9837 17.9837 3 34 3C50.0163 3 63 15.9837 63 32ZM10.5944 32C10.5944 44.9266 21.0734 55.4056 34 55.4056C46.9266 55.4056 57.4056 44.9266 57.4056 32C57.4056 19.0734 46.9266 8.59437 34 8.59437C21.0734 8.59437 10.5944 19.0734 10.5944 32Z" fill="#1F1E23"/>
<path d="M19.2447 40.7496C19.1056 40.748 19.0204 40.5964 19.0913 40.4768L28.9452 23.8527C29.0161 23.7331 29.1899 23.7351 29.2581 23.8563L38.728 40.702C38.7962 40.8233 38.7076 40.9728 38.5685 40.9712L19.2447 40.7496Z" fill="#1F1E23"/>
<path d="M48.7225 23.798C48.8615 23.7996 48.9467 23.9511 48.8758 24.0708L39.022 40.6949C38.9511 40.8145 38.7772 40.8125 38.709 40.6913L29.2391 23.8456C29.1709 23.7243 29.2596 23.5748 29.3987 23.5763L48.7225 23.798Z" fill="#1F1E23"/>
<path d="M37.7944 32C37.7944 34.0956 36.0956 35.7944 34 35.7944C31.9044 35.7944 30.2056 34.0956 30.2056 32C30.2056 29.9044 31.9044 28.2056 34 28.2056C36.0956 28.2056 37.7944 29.9044 37.7944 32Z" fill="#F1A21D"/>
<path d="M32.1028 3.18069C32.1028 3.0809 32.1837 3 32.2835 3H35.7165C35.8163 3 35.8972 3.0809 35.8972 3.18069V14.9252C35.8972 15.025 35.8163 15.1059 35.7165 15.1059H32.2835C32.1837 15.1059 32.1028 15.025 32.1028 14.9252V3.18069Z" fill="#1F1E23"/>
<path d="M32.1028 48.5327C32.1028 48.4329 32.1837 48.352 32.2835 48.352H35.7165C35.8163 48.352 35.8972 48.4329 35.8972 48.5327V60.2773C35.8972 60.377 35.8163 60.4579 35.7165 60.4579H32.2835C32.1837 60.4579 32.1028 60.377 32.1028 60.2773V48.5327Z" fill="#1F1E23"/>
</svg>
