<svg width="140" height="33" viewBox="0 0 140 33" fill="none" xmlns="http://www.w3.org/2000/svg">
<path d="M33.5371 32.142V0H38.9624V8.08669H43.927C45.4966 8.08669 46.7079 8.29142 47.5609 8.70087C48.4139 9.11032 49.011 9.74156 49.3522 10.5946C49.6935 11.4135 49.8641 12.4883 49.8641 13.819V25.0278C49.8641 26.8703 49.7958 28.3034 49.6593 29.327C49.5228 30.3507 49.1305 31.0843 48.4822 31.5279C47.8339 31.9373 46.7249 32.142 45.1553 32.142H33.5371ZM38.9624 27.7916H42.4939C43.0398 27.7916 43.4322 27.7404 43.6711 27.6381C43.9441 27.5016 44.1317 27.2457 44.2341 26.8703C44.3706 26.495 44.4388 25.9149 44.4388 25.1302V14.945C44.4388 14.3308 44.3876 13.8531 44.2853 13.5119C44.217 13.1366 44.0464 12.8636 43.7734 12.693C43.5005 12.5224 43.091 12.4371 42.5451 12.4371H38.9624V27.7916Z" fill="#1F1E23"/>
<path d="M21.5215 32.3979C19.2695 32.3979 17.5634 32.125 16.4033 31.579C15.2773 31.0331 14.5096 30.2995 14.1001 29.3782C13.6907 28.457 13.4859 27.4504 13.4859 26.3585V13.819C13.4859 12.693 13.6907 11.6865 14.1001 10.7993C14.5096 9.87805 15.2944 9.14445 16.4545 8.59851C17.6487 8.05258 19.3889 7.77961 21.675 7.77961C23.7223 7.77961 25.343 8.05258 26.5372 8.59851C27.7315 9.11033 28.5675 9.80981 29.0451 10.697C29.557 11.5841 29.8129 12.5907 29.8129 13.7167V26.1538C29.8129 27.348 29.557 28.4228 29.0451 29.3782C28.5333 30.2995 27.6803 31.0331 26.4861 31.579C25.2918 32.125 23.637 32.3979 21.5215 32.3979ZM21.4703 27.9451C22.528 27.9451 23.2787 27.6892 23.7223 27.1774C24.1658 26.6315 24.3876 25.9661 24.3876 25.1813V14.7403C24.3876 14.0238 24.1658 13.3925 23.7223 12.8466C23.3128 12.2665 22.6133 11.9765 21.6238 11.9765C20.6684 11.9765 19.9689 12.2495 19.5254 12.7954C19.1159 13.3413 18.9112 13.9896 18.9112 14.7403V25.3349C18.9112 26.0514 19.1159 26.6656 19.5254 27.1774C19.9348 27.6892 20.5831 27.9451 21.4703 27.9451Z" fill="#1F1E23"/>
<path d="M0.716542 32.142L0 27.7916H2.61026C3.25856 27.7916 3.7192 27.7063 3.99216 27.5357C4.26513 27.3651 4.41868 27.0239 4.4528 26.5121C4.52104 26.0002 4.55516 25.2155 4.55516 24.1577V0.409457H10.0828V25.9491C10.0828 27.5186 9.96335 28.7641 9.7245 29.6853C9.51977 30.5725 9.00796 31.2037 8.18905 31.579C7.40427 31.9544 6.14179 32.142 4.40162 32.142H0.716542Z" fill="#1F1E23"/>
<path d="M122.065 31.9245V0.0383301H127.49V31.9245H122.065ZM133.683 31.9245L127.951 21.6881H125.238V17.6448H127.951L133.529 7.25493L138.545 9.09747L132.762 19.1291L139.876 31.9245H133.683Z" fill="#F1A21D"/>
<path d="M110.249 32.1804C107.997 32.1804 106.291 31.9074 105.131 31.3615C104.005 30.8155 103.237 30.0819 102.828 29.1607C102.418 28.2394 102.214 27.2328 102.214 26.1409V13.6015C102.214 12.4755 102.418 11.4689 102.828 10.5817C103.237 9.66047 104.022 8.92687 105.182 8.38093C106.376 7.835 108.117 7.56203 110.403 7.56203C112.45 7.56203 114.071 7.835 115.265 8.38093C116.459 8.89275 117.295 9.59223 117.773 10.4794C118.285 11.3665 118.54 12.3731 118.54 13.4991V17.2865L113.115 17.7472V14.5227C113.115 13.8062 112.893 13.1749 112.45 12.629C112.04 12.0489 111.341 11.7589 110.351 11.7589C109.396 11.7589 108.697 12.0319 108.253 12.5778C107.844 13.1238 107.639 13.7721 107.639 14.5227V25.1173C107.639 25.8339 107.844 26.448 108.253 26.9598C108.662 27.4717 109.311 27.7276 110.198 27.7276C111.256 27.7276 112.006 27.4717 112.45 26.9598C112.893 26.4139 113.115 25.7486 113.115 24.9638V22.1488L118.54 21.7393V25.9362C118.54 27.1305 118.285 28.2053 117.773 29.1607C117.261 30.0819 116.408 30.8155 115.214 31.3615C114.019 31.9074 112.365 32.1804 110.249 32.1804Z" fill="#F1A21D"/>
<path d="M86.3736 31.9245C85.0088 31.9245 84.0364 31.7197 83.4563 31.3103C82.8762 30.8667 82.5009 30.1672 82.3303 29.2118C82.1938 28.2223 82.1256 26.9087 82.1256 25.2709V13.6015C82.1256 12.2707 82.2962 11.1959 82.6374 10.377C82.9786 9.52399 83.5757 8.89275 84.4287 8.4833C85.2818 8.07384 86.476 7.86912 88.0115 7.86912H98.4525V31.9245H93.0273V12.2196H89.4445C88.8645 12.2196 88.438 12.3049 88.165 12.4755C87.892 12.6461 87.7214 12.919 87.6532 13.2944C87.5849 13.6356 87.5508 14.1133 87.5508 14.7275V24.9126C87.5508 25.6974 87.602 26.2774 87.7044 26.6528C87.8067 27.0281 87.9773 27.284 88.2162 27.4205C88.4892 27.5228 88.8645 27.574 89.3422 27.574H92.0036L91.4406 31.9245H86.3736Z" fill="#F1A21D"/>
<path d="M66.8847 31.9245V7.86911H71.3375L71.8493 10.377C72.3611 9.42162 73.0606 8.70508 73.9477 8.22739C74.869 7.74969 75.7561 7.51084 76.6092 7.51084C77.5304 7.51084 78.2299 7.56202 78.7076 7.66439C79.1853 7.73263 79.5777 7.85205 79.8848 8.02266L79.6289 12.7314C79.2535 12.5949 78.7588 12.4925 78.1446 12.4243C77.5646 12.3219 76.8992 12.2707 76.1485 12.2707C75.2273 12.2707 74.4084 12.5437 73.6918 13.0896C72.9753 13.6015 72.5146 14.4033 72.3099 15.4952V31.9245H66.8847Z" fill="#F1A21D"/>
<path d="M55.2836 4.54231H49.8584V0.191879H66.2877V4.54231H60.8624V31.9245H55.2836V4.54231Z" fill="#F1A21D"/>
</svg>
