<svg width="58" height="58" viewBox="0 0 58 58" fill="none" xmlns="http://www.w3.org/2000/svg">
<path d="M58 29C58 45.0163 45.0163 58 29 58C12.9837 58 0 45.0163 0 29C0 12.9837 12.9837 0 29 0C45.0163 0 58 12.9837 58 29ZM5.59437 29C5.59437 41.9266 16.0734 52.4056 29 52.4056C41.9266 52.4056 52.4056 41.9266 52.4056 29C52.4056 16.0734 41.9266 5.59437 29 5.59437C16.0734 5.59437 5.59437 16.0734 5.59437 29Z" fill="#1F1E23"/>
<path d="M14.2447 37.7496C14.1056 37.748 14.0204 37.5964 14.0913 37.4768L23.9452 20.8527C24.0161 20.7331 24.1899 20.7351 24.2581 20.8563L33.728 37.702C33.7962 37.8233 33.7076 37.9728 33.5685 37.9712L14.2447 37.7496Z" fill="#1F1E23"/>
<path d="M43.7225 20.798C43.8615 20.7996 43.9467 20.9511 43.8758 21.0708L34.022 37.6949C33.9511 37.8145 33.7772 37.8125 33.709 37.6913L24.2391 20.8456C24.1709 20.7243 24.2596 20.5748 24.3987 20.5763L43.7225 20.798Z" fill="#1F1E23"/>
<path d="M32.7944 29C32.7944 31.0956 31.0956 32.7944 29 32.7944C26.9044 32.7944 25.2056 31.0956 25.2056 29C25.2056 26.9044 26.9044 25.2056 29 25.2056C31.0956 25.2056 32.7944 26.9044 32.7944 29Z" fill="#F1A21D"/>
<path d="M27.1028 0.180685C27.1028 0.0808954 27.1837 0 27.2835 0H30.7165C30.8163 0 30.8972 0.0808956 30.8972 0.180685V11.9252C30.8972 12.025 30.8163 12.1059 30.7165 12.1059H27.2835C27.1837 12.1059 27.1028 12.025 27.1028 11.9252V0.180685Z" fill="#1F1E23"/>
<path d="M27.1028 45.5327C27.1028 45.4329 27.1837 45.352 27.2835 45.352H30.7165C30.8163 45.352 30.8972 45.4329 30.8972 45.5327V57.2773C30.8972 57.377 30.8163 57.4579 30.7165 57.4579H27.2835C27.1837 57.4579 27.1028 57.377 27.1028 57.2773V45.5327Z" fill="#1F1E23"/>
</svg>
